%TF.GenerationSoftware,KiCad,Pcbnew,9.0.5*%
%TF.CreationDate,2025-11-04T12:18:06+05:30*%
%TF.ProjectId,digital_diya,64696769-7461-46c5-9f64-6979612e6b69,rev?*%
%TF.SameCoordinates,Original*%
%TF.FileFunction,Drillmap*%
%TF.FilePolarity,Positive*%
%FSLAX45Y45*%
G04 Gerber Fmt 4.5, Leading zero omitted, Abs format (unit mm)*
G04 Created by KiCad (PCBNEW 9.0.5) date 2025-11-04 12:18:06*
%MOMM*%
%LPD*%
G01*
G04 APERTURE LIST*
%ADD10C,0.050000*%
%ADD11C,0.200000*%
%ADD12C,0.100000*%
%ADD13C,0.130000*%
%ADD14C,0.150000*%
G04 APERTURE END LIST*
D10*
X17483679Y-7599353D02*
G75*
G02*
X11396121Y-7599353I-3043779J0D01*
G01*
X11396121Y-7599353D02*
G75*
G02*
X17483679Y-7599353I3043779J0D01*
G01*
D11*
D12*
X16418800Y-8468600D02*
X16448800Y-8498600D01*
X16448800Y-8468600D02*
X16418800Y-8498600D01*
X13737000Y-9525000D02*
G75*
G02*
X13657000Y-9525000I-40000J0D01*
G01*
X13657000Y-9525000D02*
G75*
G02*
X13737000Y-9525000I40000J0D01*
G01*
X13937000Y-9525000D02*
G75*
G02*
X13857000Y-9525000I-40000J0D01*
G01*
X13857000Y-9525000D02*
G75*
G02*
X13937000Y-9525000I40000J0D01*
G01*
X14137000Y-9525000D02*
G75*
G02*
X14057000Y-9525000I-40000J0D01*
G01*
X14057000Y-9525000D02*
G75*
G02*
X14137000Y-9525000I40000J0D01*
G01*
X14899000Y-5905500D02*
G75*
G02*
X14819000Y-5905500I-40000J0D01*
G01*
X14819000Y-5905500D02*
G75*
G02*
X14899000Y-5905500I40000J0D01*
G01*
X14899000Y-6445250D02*
G75*
G02*
X14819000Y-6445250I-40000J0D01*
G01*
X14819000Y-6445250D02*
G75*
G02*
X14899000Y-6445250I40000J0D01*
G01*
X14899000Y-6985000D02*
G75*
G02*
X14819000Y-6985000I-40000J0D01*
G01*
X14819000Y-6985000D02*
G75*
G02*
X14899000Y-6985000I40000J0D01*
G01*
X15280000Y-8889500D02*
G75*
G02*
X15200000Y-8889500I-40000J0D01*
G01*
X15200000Y-8889500D02*
G75*
G02*
X15280000Y-8889500I40000J0D01*
G01*
X15280000Y-9651500D02*
G75*
G02*
X15200000Y-9651500I-40000J0D01*
G01*
X15200000Y-9651500D02*
G75*
G02*
X15280000Y-9651500I40000J0D01*
G01*
X15534000Y-8889500D02*
G75*
G02*
X15454000Y-8889500I-40000J0D01*
G01*
X15454000Y-8889500D02*
G75*
G02*
X15534000Y-8889500I40000J0D01*
G01*
X15534000Y-9651500D02*
G75*
G02*
X15454000Y-9651500I-40000J0D01*
G01*
X15454000Y-9651500D02*
G75*
G02*
X15534000Y-9651500I40000J0D01*
G01*
X15788000Y-8889500D02*
G75*
G02*
X15708000Y-8889500I-40000J0D01*
G01*
X15708000Y-8889500D02*
G75*
G02*
X15788000Y-8889500I40000J0D01*
G01*
X15788000Y-9651500D02*
G75*
G02*
X15708000Y-9651500I-40000J0D01*
G01*
X15708000Y-9651500D02*
G75*
G02*
X15788000Y-9651500I40000J0D01*
G01*
X16042000Y-8889500D02*
G75*
G02*
X15962000Y-8889500I-40000J0D01*
G01*
X15962000Y-8889500D02*
G75*
G02*
X16042000Y-8889500I40000J0D01*
G01*
X16042000Y-9651500D02*
G75*
G02*
X15962000Y-9651500I-40000J0D01*
G01*
X15962000Y-9651500D02*
G75*
G02*
X16042000Y-9651500I40000J0D01*
G01*
X16162502Y-7513500D02*
G75*
G02*
X16082502Y-7513500I-40000J0D01*
G01*
X16082502Y-7513500D02*
G75*
G02*
X16162502Y-7513500I40000J0D01*
G01*
X16162502Y-7853500D02*
G75*
G02*
X16082502Y-7853500I-40000J0D01*
G01*
X16082502Y-7853500D02*
G75*
G02*
X16162502Y-7853500I40000J0D01*
G01*
X16423000Y-5905500D02*
G75*
G02*
X16343000Y-5905500I-40000J0D01*
G01*
X16343000Y-5905500D02*
G75*
G02*
X16423000Y-5905500I40000J0D01*
G01*
X16423000Y-6445250D02*
G75*
G02*
X16343000Y-6445250I-40000J0D01*
G01*
X16343000Y-6445250D02*
G75*
G02*
X16423000Y-6445250I40000J0D01*
G01*
X16423000Y-6985000D02*
G75*
G02*
X16343000Y-6985000I-40000J0D01*
G01*
X16343000Y-6985000D02*
G75*
G02*
X16423000Y-6985000I40000J0D01*
G01*
X15049500Y-7511000D02*
X15049500Y-7601000D01*
X15004500Y-7556000D02*
X15094500Y-7556000D01*
X15049500Y-7765000D02*
X15049500Y-7855000D01*
X15004500Y-7810000D02*
X15094500Y-7810000D01*
X16989856Y-7591356D02*
X16989856Y-7520644D01*
X16919144Y-7520644D01*
X16919144Y-7591356D01*
X16989856Y-7591356D01*
X16989856Y-7845356D02*
X16989856Y-7774644D01*
X16919144Y-7774644D01*
X16919144Y-7845356D01*
X16989856Y-7845356D01*
D13*
X11752091Y-7748500D02*
X11817091Y-7683500D01*
X11752091Y-7618500D01*
X11687091Y-7683500D01*
X11752091Y-7748500D01*
X13752091Y-7748500D02*
X13817091Y-7683500D01*
X13752091Y-7618500D01*
X13687091Y-7683500D01*
X13752091Y-7748500D01*
D14*
X13412000Y-9450000D02*
X13562000Y-9600000D01*
X13562000Y-9450000D02*
X13412000Y-9600000D01*
X13562000Y-9525000D02*
G75*
G02*
X13412000Y-9525000I-75000J0D01*
G01*
X13412000Y-9525000D02*
G75*
G02*
X13562000Y-9525000I75000J0D01*
G01*
X14232000Y-9450000D02*
X14382000Y-9600000D01*
X14382000Y-9450000D02*
X14232000Y-9600000D01*
X14382000Y-9525000D02*
G75*
G02*
X14232000Y-9525000I-75000J0D01*
G01*
X14232000Y-9525000D02*
G75*
G02*
X14382000Y-9525000I75000J0D01*
G01*
D11*
X11654398Y-10957115D02*
X11654398Y-10757115D01*
X11654398Y-10757115D02*
X11702017Y-10757115D01*
X11702017Y-10757115D02*
X11730588Y-10766639D01*
X11730588Y-10766639D02*
X11749636Y-10785687D01*
X11749636Y-10785687D02*
X11759160Y-10804734D01*
X11759160Y-10804734D02*
X11768684Y-10842830D01*
X11768684Y-10842830D02*
X11768684Y-10871401D01*
X11768684Y-10871401D02*
X11759160Y-10909496D01*
X11759160Y-10909496D02*
X11749636Y-10928544D01*
X11749636Y-10928544D02*
X11730588Y-10947592D01*
X11730588Y-10947592D02*
X11702017Y-10957115D01*
X11702017Y-10957115D02*
X11654398Y-10957115D01*
X11854398Y-10957115D02*
X11854398Y-10823782D01*
X11854398Y-10861877D02*
X11863922Y-10842830D01*
X11863922Y-10842830D02*
X11873445Y-10833306D01*
X11873445Y-10833306D02*
X11892493Y-10823782D01*
X11892493Y-10823782D02*
X11911541Y-10823782D01*
X11978207Y-10957115D02*
X11978207Y-10823782D01*
X11978207Y-10757115D02*
X11968684Y-10766639D01*
X11968684Y-10766639D02*
X11978207Y-10776163D01*
X11978207Y-10776163D02*
X11987731Y-10766639D01*
X11987731Y-10766639D02*
X11978207Y-10757115D01*
X11978207Y-10757115D02*
X11978207Y-10776163D01*
X12102017Y-10957115D02*
X12082969Y-10947592D01*
X12082969Y-10947592D02*
X12073445Y-10928544D01*
X12073445Y-10928544D02*
X12073445Y-10757115D01*
X12206779Y-10957115D02*
X12187731Y-10947592D01*
X12187731Y-10947592D02*
X12178207Y-10928544D01*
X12178207Y-10928544D02*
X12178207Y-10757115D01*
X12435350Y-10957115D02*
X12435350Y-10757115D01*
X12435350Y-10757115D02*
X12502017Y-10899972D01*
X12502017Y-10899972D02*
X12568684Y-10757115D01*
X12568684Y-10757115D02*
X12568684Y-10957115D01*
X12749636Y-10957115D02*
X12749636Y-10852353D01*
X12749636Y-10852353D02*
X12740112Y-10833306D01*
X12740112Y-10833306D02*
X12721065Y-10823782D01*
X12721065Y-10823782D02*
X12682969Y-10823782D01*
X12682969Y-10823782D02*
X12663922Y-10833306D01*
X12749636Y-10947592D02*
X12730588Y-10957115D01*
X12730588Y-10957115D02*
X12682969Y-10957115D01*
X12682969Y-10957115D02*
X12663922Y-10947592D01*
X12663922Y-10947592D02*
X12654398Y-10928544D01*
X12654398Y-10928544D02*
X12654398Y-10909496D01*
X12654398Y-10909496D02*
X12663922Y-10890449D01*
X12663922Y-10890449D02*
X12682969Y-10880925D01*
X12682969Y-10880925D02*
X12730588Y-10880925D01*
X12730588Y-10880925D02*
X12749636Y-10871401D01*
X12844874Y-10823782D02*
X12844874Y-11023782D01*
X12844874Y-10833306D02*
X12863922Y-10823782D01*
X12863922Y-10823782D02*
X12902017Y-10823782D01*
X12902017Y-10823782D02*
X12921065Y-10833306D01*
X12921065Y-10833306D02*
X12930588Y-10842830D01*
X12930588Y-10842830D02*
X12940112Y-10861877D01*
X12940112Y-10861877D02*
X12940112Y-10919020D01*
X12940112Y-10919020D02*
X12930588Y-10938068D01*
X12930588Y-10938068D02*
X12921065Y-10947592D01*
X12921065Y-10947592D02*
X12902017Y-10957115D01*
X12902017Y-10957115D02*
X12863922Y-10957115D01*
X12863922Y-10957115D02*
X12844874Y-10947592D01*
X13025826Y-10938068D02*
X13035350Y-10947592D01*
X13035350Y-10947592D02*
X13025826Y-10957115D01*
X13025826Y-10957115D02*
X13016303Y-10947592D01*
X13016303Y-10947592D02*
X13025826Y-10938068D01*
X13025826Y-10938068D02*
X13025826Y-10957115D01*
X13025826Y-10833306D02*
X13035350Y-10842830D01*
X13035350Y-10842830D02*
X13025826Y-10852353D01*
X13025826Y-10852353D02*
X13016303Y-10842830D01*
X13016303Y-10842830D02*
X13025826Y-10833306D01*
X13025826Y-10833306D02*
X13025826Y-10852353D01*
D12*
X11363621Y-11270631D02*
X11393621Y-11300631D01*
X11393621Y-11270631D02*
X11363621Y-11300631D01*
D11*
X11692493Y-11177115D02*
X11711541Y-11177115D01*
X11711541Y-11177115D02*
X11730588Y-11186639D01*
X11730588Y-11186639D02*
X11740112Y-11196163D01*
X11740112Y-11196163D02*
X11749636Y-11215210D01*
X11749636Y-11215210D02*
X11759160Y-11253306D01*
X11759160Y-11253306D02*
X11759160Y-11300925D01*
X11759160Y-11300925D02*
X11749636Y-11339020D01*
X11749636Y-11339020D02*
X11740112Y-11358068D01*
X11740112Y-11358068D02*
X11730588Y-11367591D01*
X11730588Y-11367591D02*
X11711541Y-11377115D01*
X11711541Y-11377115D02*
X11692493Y-11377115D01*
X11692493Y-11377115D02*
X11673445Y-11367591D01*
X11673445Y-11367591D02*
X11663922Y-11358068D01*
X11663922Y-11358068D02*
X11654398Y-11339020D01*
X11654398Y-11339020D02*
X11644874Y-11300925D01*
X11644874Y-11300925D02*
X11644874Y-11253306D01*
X11644874Y-11253306D02*
X11654398Y-11215210D01*
X11654398Y-11215210D02*
X11663922Y-11196163D01*
X11663922Y-11196163D02*
X11673445Y-11186639D01*
X11673445Y-11186639D02*
X11692493Y-11177115D01*
X11844874Y-11358068D02*
X11854398Y-11367591D01*
X11854398Y-11367591D02*
X11844874Y-11377115D01*
X11844874Y-11377115D02*
X11835350Y-11367591D01*
X11835350Y-11367591D02*
X11844874Y-11358068D01*
X11844874Y-11358068D02*
X11844874Y-11377115D01*
X11921065Y-11177115D02*
X12044874Y-11177115D01*
X12044874Y-11177115D02*
X11978207Y-11253306D01*
X11978207Y-11253306D02*
X12006779Y-11253306D01*
X12006779Y-11253306D02*
X12025826Y-11262829D01*
X12025826Y-11262829D02*
X12035350Y-11272353D01*
X12035350Y-11272353D02*
X12044874Y-11291401D01*
X12044874Y-11291401D02*
X12044874Y-11339020D01*
X12044874Y-11339020D02*
X12035350Y-11358068D01*
X12035350Y-11358068D02*
X12025826Y-11367591D01*
X12025826Y-11367591D02*
X12006779Y-11377115D01*
X12006779Y-11377115D02*
X11949636Y-11377115D01*
X11949636Y-11377115D02*
X11930588Y-11367591D01*
X11930588Y-11367591D02*
X11921065Y-11358068D01*
X12168684Y-11177115D02*
X12187731Y-11177115D01*
X12187731Y-11177115D02*
X12206779Y-11186639D01*
X12206779Y-11186639D02*
X12216303Y-11196163D01*
X12216303Y-11196163D02*
X12225826Y-11215210D01*
X12225826Y-11215210D02*
X12235350Y-11253306D01*
X12235350Y-11253306D02*
X12235350Y-11300925D01*
X12235350Y-11300925D02*
X12225826Y-11339020D01*
X12225826Y-11339020D02*
X12216303Y-11358068D01*
X12216303Y-11358068D02*
X12206779Y-11367591D01*
X12206779Y-11367591D02*
X12187731Y-11377115D01*
X12187731Y-11377115D02*
X12168684Y-11377115D01*
X12168684Y-11377115D02*
X12149636Y-11367591D01*
X12149636Y-11367591D02*
X12140112Y-11358068D01*
X12140112Y-11358068D02*
X12130588Y-11339020D01*
X12130588Y-11339020D02*
X12121065Y-11300925D01*
X12121065Y-11300925D02*
X12121065Y-11253306D01*
X12121065Y-11253306D02*
X12130588Y-11215210D01*
X12130588Y-11215210D02*
X12140112Y-11196163D01*
X12140112Y-11196163D02*
X12149636Y-11186639D01*
X12149636Y-11186639D02*
X12168684Y-11177115D01*
X12359160Y-11177115D02*
X12378207Y-11177115D01*
X12378207Y-11177115D02*
X12397255Y-11186639D01*
X12397255Y-11186639D02*
X12406779Y-11196163D01*
X12406779Y-11196163D02*
X12416303Y-11215210D01*
X12416303Y-11215210D02*
X12425826Y-11253306D01*
X12425826Y-11253306D02*
X12425826Y-11300925D01*
X12425826Y-11300925D02*
X12416303Y-11339020D01*
X12416303Y-11339020D02*
X12406779Y-11358068D01*
X12406779Y-11358068D02*
X12397255Y-11367591D01*
X12397255Y-11367591D02*
X12378207Y-11377115D01*
X12378207Y-11377115D02*
X12359160Y-11377115D01*
X12359160Y-11377115D02*
X12340112Y-11367591D01*
X12340112Y-11367591D02*
X12330588Y-11358068D01*
X12330588Y-11358068D02*
X12321065Y-11339020D01*
X12321065Y-11339020D02*
X12311541Y-11300925D01*
X12311541Y-11300925D02*
X12311541Y-11253306D01*
X12311541Y-11253306D02*
X12321065Y-11215210D01*
X12321065Y-11215210D02*
X12330588Y-11196163D01*
X12330588Y-11196163D02*
X12340112Y-11186639D01*
X12340112Y-11186639D02*
X12359160Y-11177115D01*
X12511541Y-11377115D02*
X12511541Y-11243782D01*
X12511541Y-11262829D02*
X12521065Y-11253306D01*
X12521065Y-11253306D02*
X12540112Y-11243782D01*
X12540112Y-11243782D02*
X12568684Y-11243782D01*
X12568684Y-11243782D02*
X12587731Y-11253306D01*
X12587731Y-11253306D02*
X12597255Y-11272353D01*
X12597255Y-11272353D02*
X12597255Y-11377115D01*
X12597255Y-11272353D02*
X12606779Y-11253306D01*
X12606779Y-11253306D02*
X12625826Y-11243782D01*
X12625826Y-11243782D02*
X12654398Y-11243782D01*
X12654398Y-11243782D02*
X12673446Y-11253306D01*
X12673446Y-11253306D02*
X12682969Y-11272353D01*
X12682969Y-11272353D02*
X12682969Y-11377115D01*
X12778207Y-11377115D02*
X12778207Y-11243782D01*
X12778207Y-11262829D02*
X12787731Y-11253306D01*
X12787731Y-11253306D02*
X12806779Y-11243782D01*
X12806779Y-11243782D02*
X12835350Y-11243782D01*
X12835350Y-11243782D02*
X12854398Y-11253306D01*
X12854398Y-11253306D02*
X12863922Y-11272353D01*
X12863922Y-11272353D02*
X12863922Y-11377115D01*
X12863922Y-11272353D02*
X12873446Y-11253306D01*
X12873446Y-11253306D02*
X12892493Y-11243782D01*
X12892493Y-11243782D02*
X12921065Y-11243782D01*
X12921065Y-11243782D02*
X12940112Y-11253306D01*
X12940112Y-11253306D02*
X12949636Y-11272353D01*
X12949636Y-11272353D02*
X12949636Y-11377115D01*
X13340112Y-11167592D02*
X13168684Y-11424734D01*
X13597255Y-11177115D02*
X13616303Y-11177115D01*
X13616303Y-11177115D02*
X13635350Y-11186639D01*
X13635350Y-11186639D02*
X13644874Y-11196163D01*
X13644874Y-11196163D02*
X13654398Y-11215210D01*
X13654398Y-11215210D02*
X13663922Y-11253306D01*
X13663922Y-11253306D02*
X13663922Y-11300925D01*
X13663922Y-11300925D02*
X13654398Y-11339020D01*
X13654398Y-11339020D02*
X13644874Y-11358068D01*
X13644874Y-11358068D02*
X13635350Y-11367591D01*
X13635350Y-11367591D02*
X13616303Y-11377115D01*
X13616303Y-11377115D02*
X13597255Y-11377115D01*
X13597255Y-11377115D02*
X13578208Y-11367591D01*
X13578208Y-11367591D02*
X13568684Y-11358068D01*
X13568684Y-11358068D02*
X13559160Y-11339020D01*
X13559160Y-11339020D02*
X13549636Y-11300925D01*
X13549636Y-11300925D02*
X13549636Y-11253306D01*
X13549636Y-11253306D02*
X13559160Y-11215210D01*
X13559160Y-11215210D02*
X13568684Y-11196163D01*
X13568684Y-11196163D02*
X13578208Y-11186639D01*
X13578208Y-11186639D02*
X13597255Y-11177115D01*
X13749636Y-11358068D02*
X13759160Y-11367591D01*
X13759160Y-11367591D02*
X13749636Y-11377115D01*
X13749636Y-11377115D02*
X13740112Y-11367591D01*
X13740112Y-11367591D02*
X13749636Y-11358068D01*
X13749636Y-11358068D02*
X13749636Y-11377115D01*
X13882969Y-11177115D02*
X13902017Y-11177115D01*
X13902017Y-11177115D02*
X13921065Y-11186639D01*
X13921065Y-11186639D02*
X13930589Y-11196163D01*
X13930589Y-11196163D02*
X13940112Y-11215210D01*
X13940112Y-11215210D02*
X13949636Y-11253306D01*
X13949636Y-11253306D02*
X13949636Y-11300925D01*
X13949636Y-11300925D02*
X13940112Y-11339020D01*
X13940112Y-11339020D02*
X13930589Y-11358068D01*
X13930589Y-11358068D02*
X13921065Y-11367591D01*
X13921065Y-11367591D02*
X13902017Y-11377115D01*
X13902017Y-11377115D02*
X13882969Y-11377115D01*
X13882969Y-11377115D02*
X13863922Y-11367591D01*
X13863922Y-11367591D02*
X13854398Y-11358068D01*
X13854398Y-11358068D02*
X13844874Y-11339020D01*
X13844874Y-11339020D02*
X13835350Y-11300925D01*
X13835350Y-11300925D02*
X13835350Y-11253306D01*
X13835350Y-11253306D02*
X13844874Y-11215210D01*
X13844874Y-11215210D02*
X13854398Y-11196163D01*
X13854398Y-11196163D02*
X13863922Y-11186639D01*
X13863922Y-11186639D02*
X13882969Y-11177115D01*
X14140112Y-11377115D02*
X14025827Y-11377115D01*
X14082969Y-11377115D02*
X14082969Y-11177115D01*
X14082969Y-11177115D02*
X14063922Y-11205687D01*
X14063922Y-11205687D02*
X14044874Y-11224734D01*
X14044874Y-11224734D02*
X14025827Y-11234258D01*
X14330589Y-11377115D02*
X14216303Y-11377115D01*
X14273446Y-11377115D02*
X14273446Y-11177115D01*
X14273446Y-11177115D02*
X14254398Y-11205687D01*
X14254398Y-11205687D02*
X14235350Y-11224734D01*
X14235350Y-11224734D02*
X14216303Y-11234258D01*
X14444874Y-11262829D02*
X14425827Y-11253306D01*
X14425827Y-11253306D02*
X14416303Y-11243782D01*
X14416303Y-11243782D02*
X14406779Y-11224734D01*
X14406779Y-11224734D02*
X14406779Y-11215210D01*
X14406779Y-11215210D02*
X14416303Y-11196163D01*
X14416303Y-11196163D02*
X14425827Y-11186639D01*
X14425827Y-11186639D02*
X14444874Y-11177115D01*
X14444874Y-11177115D02*
X14482970Y-11177115D01*
X14482970Y-11177115D02*
X14502017Y-11186639D01*
X14502017Y-11186639D02*
X14511541Y-11196163D01*
X14511541Y-11196163D02*
X14521065Y-11215210D01*
X14521065Y-11215210D02*
X14521065Y-11224734D01*
X14521065Y-11224734D02*
X14511541Y-11243782D01*
X14511541Y-11243782D02*
X14502017Y-11253306D01*
X14502017Y-11253306D02*
X14482970Y-11262829D01*
X14482970Y-11262829D02*
X14444874Y-11262829D01*
X14444874Y-11262829D02*
X14425827Y-11272353D01*
X14425827Y-11272353D02*
X14416303Y-11281877D01*
X14416303Y-11281877D02*
X14406779Y-11300925D01*
X14406779Y-11300925D02*
X14406779Y-11339020D01*
X14406779Y-11339020D02*
X14416303Y-11358068D01*
X14416303Y-11358068D02*
X14425827Y-11367591D01*
X14425827Y-11367591D02*
X14444874Y-11377115D01*
X14444874Y-11377115D02*
X14482970Y-11377115D01*
X14482970Y-11377115D02*
X14502017Y-11367591D01*
X14502017Y-11367591D02*
X14511541Y-11358068D01*
X14511541Y-11358068D02*
X14521065Y-11339020D01*
X14521065Y-11339020D02*
X14521065Y-11300925D01*
X14521065Y-11300925D02*
X14511541Y-11281877D01*
X14511541Y-11281877D02*
X14502017Y-11272353D01*
X14502017Y-11272353D02*
X14482970Y-11262829D01*
X14597255Y-11177115D02*
X14597255Y-11215210D01*
X14673446Y-11177115D02*
X14673446Y-11215210D01*
X14968684Y-11453306D02*
X14959160Y-11443782D01*
X14959160Y-11443782D02*
X14940112Y-11415210D01*
X14940112Y-11415210D02*
X14930589Y-11396163D01*
X14930589Y-11396163D02*
X14921065Y-11367591D01*
X14921065Y-11367591D02*
X14911541Y-11319972D01*
X14911541Y-11319972D02*
X14911541Y-11281877D01*
X14911541Y-11281877D02*
X14921065Y-11234258D01*
X14921065Y-11234258D02*
X14930589Y-11205687D01*
X14930589Y-11205687D02*
X14940112Y-11186639D01*
X14940112Y-11186639D02*
X14959160Y-11158068D01*
X14959160Y-11158068D02*
X14968684Y-11148544D01*
X15149636Y-11377115D02*
X15035351Y-11377115D01*
X15092493Y-11377115D02*
X15092493Y-11177115D01*
X15092493Y-11177115D02*
X15073446Y-11205687D01*
X15073446Y-11205687D02*
X15054398Y-11224734D01*
X15054398Y-11224734D02*
X15035351Y-11234258D01*
X15387732Y-11377115D02*
X15387732Y-11177115D01*
X15473446Y-11377115D02*
X15473446Y-11272353D01*
X15473446Y-11272353D02*
X15463922Y-11253306D01*
X15463922Y-11253306D02*
X15444874Y-11243782D01*
X15444874Y-11243782D02*
X15416303Y-11243782D01*
X15416303Y-11243782D02*
X15397255Y-11253306D01*
X15397255Y-11253306D02*
X15387732Y-11262829D01*
X15597255Y-11377115D02*
X15578208Y-11367591D01*
X15578208Y-11367591D02*
X15568684Y-11358068D01*
X15568684Y-11358068D02*
X15559160Y-11339020D01*
X15559160Y-11339020D02*
X15559160Y-11281877D01*
X15559160Y-11281877D02*
X15568684Y-11262829D01*
X15568684Y-11262829D02*
X15578208Y-11253306D01*
X15578208Y-11253306D02*
X15597255Y-11243782D01*
X15597255Y-11243782D02*
X15625827Y-11243782D01*
X15625827Y-11243782D02*
X15644874Y-11253306D01*
X15644874Y-11253306D02*
X15654398Y-11262829D01*
X15654398Y-11262829D02*
X15663922Y-11281877D01*
X15663922Y-11281877D02*
X15663922Y-11339020D01*
X15663922Y-11339020D02*
X15654398Y-11358068D01*
X15654398Y-11358068D02*
X15644874Y-11367591D01*
X15644874Y-11367591D02*
X15625827Y-11377115D01*
X15625827Y-11377115D02*
X15597255Y-11377115D01*
X15778208Y-11377115D02*
X15759160Y-11367591D01*
X15759160Y-11367591D02*
X15749636Y-11348544D01*
X15749636Y-11348544D02*
X15749636Y-11177115D01*
X15930589Y-11367591D02*
X15911541Y-11377115D01*
X15911541Y-11377115D02*
X15873446Y-11377115D01*
X15873446Y-11377115D02*
X15854398Y-11367591D01*
X15854398Y-11367591D02*
X15844874Y-11348544D01*
X15844874Y-11348544D02*
X15844874Y-11272353D01*
X15844874Y-11272353D02*
X15854398Y-11253306D01*
X15854398Y-11253306D02*
X15873446Y-11243782D01*
X15873446Y-11243782D02*
X15911541Y-11243782D01*
X15911541Y-11243782D02*
X15930589Y-11253306D01*
X15930589Y-11253306D02*
X15940113Y-11272353D01*
X15940113Y-11272353D02*
X15940113Y-11291401D01*
X15940113Y-11291401D02*
X15844874Y-11310449D01*
X16006779Y-11453306D02*
X16016303Y-11443782D01*
X16016303Y-11443782D02*
X16035351Y-11415210D01*
X16035351Y-11415210D02*
X16044874Y-11396163D01*
X16044874Y-11396163D02*
X16054398Y-11367591D01*
X16054398Y-11367591D02*
X16063922Y-11319972D01*
X16063922Y-11319972D02*
X16063922Y-11281877D01*
X16063922Y-11281877D02*
X16054398Y-11234258D01*
X16054398Y-11234258D02*
X16044874Y-11205687D01*
X16044874Y-11205687D02*
X16035351Y-11186639D01*
X16035351Y-11186639D02*
X16016303Y-11158068D01*
X16016303Y-11158068D02*
X16006779Y-11148544D01*
D12*
X11393621Y-11549631D02*
G75*
G02*
X11313621Y-11549631I-40000J0D01*
G01*
X11313621Y-11549631D02*
G75*
G02*
X11393621Y-11549631I40000J0D01*
G01*
D11*
X11692493Y-11441115D02*
X11711541Y-11441115D01*
X11711541Y-11441115D02*
X11730588Y-11450639D01*
X11730588Y-11450639D02*
X11740112Y-11460163D01*
X11740112Y-11460163D02*
X11749636Y-11479210D01*
X11749636Y-11479210D02*
X11759160Y-11517306D01*
X11759160Y-11517306D02*
X11759160Y-11564925D01*
X11759160Y-11564925D02*
X11749636Y-11603020D01*
X11749636Y-11603020D02*
X11740112Y-11622068D01*
X11740112Y-11622068D02*
X11730588Y-11631591D01*
X11730588Y-11631591D02*
X11711541Y-11641115D01*
X11711541Y-11641115D02*
X11692493Y-11641115D01*
X11692493Y-11641115D02*
X11673445Y-11631591D01*
X11673445Y-11631591D02*
X11663922Y-11622068D01*
X11663922Y-11622068D02*
X11654398Y-11603020D01*
X11654398Y-11603020D02*
X11644874Y-11564925D01*
X11644874Y-11564925D02*
X11644874Y-11517306D01*
X11644874Y-11517306D02*
X11654398Y-11479210D01*
X11654398Y-11479210D02*
X11663922Y-11460163D01*
X11663922Y-11460163D02*
X11673445Y-11450639D01*
X11673445Y-11450639D02*
X11692493Y-11441115D01*
X11844874Y-11622068D02*
X11854398Y-11631591D01*
X11854398Y-11631591D02*
X11844874Y-11641115D01*
X11844874Y-11641115D02*
X11835350Y-11631591D01*
X11835350Y-11631591D02*
X11844874Y-11622068D01*
X11844874Y-11622068D02*
X11844874Y-11641115D01*
X11968684Y-11526829D02*
X11949636Y-11517306D01*
X11949636Y-11517306D02*
X11940112Y-11507782D01*
X11940112Y-11507782D02*
X11930588Y-11488734D01*
X11930588Y-11488734D02*
X11930588Y-11479210D01*
X11930588Y-11479210D02*
X11940112Y-11460163D01*
X11940112Y-11460163D02*
X11949636Y-11450639D01*
X11949636Y-11450639D02*
X11968684Y-11441115D01*
X11968684Y-11441115D02*
X12006779Y-11441115D01*
X12006779Y-11441115D02*
X12025826Y-11450639D01*
X12025826Y-11450639D02*
X12035350Y-11460163D01*
X12035350Y-11460163D02*
X12044874Y-11479210D01*
X12044874Y-11479210D02*
X12044874Y-11488734D01*
X12044874Y-11488734D02*
X12035350Y-11507782D01*
X12035350Y-11507782D02*
X12025826Y-11517306D01*
X12025826Y-11517306D02*
X12006779Y-11526829D01*
X12006779Y-11526829D02*
X11968684Y-11526829D01*
X11968684Y-11526829D02*
X11949636Y-11536353D01*
X11949636Y-11536353D02*
X11940112Y-11545877D01*
X11940112Y-11545877D02*
X11930588Y-11564925D01*
X11930588Y-11564925D02*
X11930588Y-11603020D01*
X11930588Y-11603020D02*
X11940112Y-11622068D01*
X11940112Y-11622068D02*
X11949636Y-11631591D01*
X11949636Y-11631591D02*
X11968684Y-11641115D01*
X11968684Y-11641115D02*
X12006779Y-11641115D01*
X12006779Y-11641115D02*
X12025826Y-11631591D01*
X12025826Y-11631591D02*
X12035350Y-11622068D01*
X12035350Y-11622068D02*
X12044874Y-11603020D01*
X12044874Y-11603020D02*
X12044874Y-11564925D01*
X12044874Y-11564925D02*
X12035350Y-11545877D01*
X12035350Y-11545877D02*
X12025826Y-11536353D01*
X12025826Y-11536353D02*
X12006779Y-11526829D01*
X12168684Y-11441115D02*
X12187731Y-11441115D01*
X12187731Y-11441115D02*
X12206779Y-11450639D01*
X12206779Y-11450639D02*
X12216303Y-11460163D01*
X12216303Y-11460163D02*
X12225826Y-11479210D01*
X12225826Y-11479210D02*
X12235350Y-11517306D01*
X12235350Y-11517306D02*
X12235350Y-11564925D01*
X12235350Y-11564925D02*
X12225826Y-11603020D01*
X12225826Y-11603020D02*
X12216303Y-11622068D01*
X12216303Y-11622068D02*
X12206779Y-11631591D01*
X12206779Y-11631591D02*
X12187731Y-11641115D01*
X12187731Y-11641115D02*
X12168684Y-11641115D01*
X12168684Y-11641115D02*
X12149636Y-11631591D01*
X12149636Y-11631591D02*
X12140112Y-11622068D01*
X12140112Y-11622068D02*
X12130588Y-11603020D01*
X12130588Y-11603020D02*
X12121065Y-11564925D01*
X12121065Y-11564925D02*
X12121065Y-11517306D01*
X12121065Y-11517306D02*
X12130588Y-11479210D01*
X12130588Y-11479210D02*
X12140112Y-11460163D01*
X12140112Y-11460163D02*
X12149636Y-11450639D01*
X12149636Y-11450639D02*
X12168684Y-11441115D01*
X12359160Y-11441115D02*
X12378207Y-11441115D01*
X12378207Y-11441115D02*
X12397255Y-11450639D01*
X12397255Y-11450639D02*
X12406779Y-11460163D01*
X12406779Y-11460163D02*
X12416303Y-11479210D01*
X12416303Y-11479210D02*
X12425826Y-11517306D01*
X12425826Y-11517306D02*
X12425826Y-11564925D01*
X12425826Y-11564925D02*
X12416303Y-11603020D01*
X12416303Y-11603020D02*
X12406779Y-11622068D01*
X12406779Y-11622068D02*
X12397255Y-11631591D01*
X12397255Y-11631591D02*
X12378207Y-11641115D01*
X12378207Y-11641115D02*
X12359160Y-11641115D01*
X12359160Y-11641115D02*
X12340112Y-11631591D01*
X12340112Y-11631591D02*
X12330588Y-11622068D01*
X12330588Y-11622068D02*
X12321065Y-11603020D01*
X12321065Y-11603020D02*
X12311541Y-11564925D01*
X12311541Y-11564925D02*
X12311541Y-11517306D01*
X12311541Y-11517306D02*
X12321065Y-11479210D01*
X12321065Y-11479210D02*
X12330588Y-11460163D01*
X12330588Y-11460163D02*
X12340112Y-11450639D01*
X12340112Y-11450639D02*
X12359160Y-11441115D01*
X12511541Y-11641115D02*
X12511541Y-11507782D01*
X12511541Y-11526829D02*
X12521065Y-11517306D01*
X12521065Y-11517306D02*
X12540112Y-11507782D01*
X12540112Y-11507782D02*
X12568684Y-11507782D01*
X12568684Y-11507782D02*
X12587731Y-11517306D01*
X12587731Y-11517306D02*
X12597255Y-11536353D01*
X12597255Y-11536353D02*
X12597255Y-11641115D01*
X12597255Y-11536353D02*
X12606779Y-11517306D01*
X12606779Y-11517306D02*
X12625826Y-11507782D01*
X12625826Y-11507782D02*
X12654398Y-11507782D01*
X12654398Y-11507782D02*
X12673446Y-11517306D01*
X12673446Y-11517306D02*
X12682969Y-11536353D01*
X12682969Y-11536353D02*
X12682969Y-11641115D01*
X12778207Y-11641115D02*
X12778207Y-11507782D01*
X12778207Y-11526829D02*
X12787731Y-11517306D01*
X12787731Y-11517306D02*
X12806779Y-11507782D01*
X12806779Y-11507782D02*
X12835350Y-11507782D01*
X12835350Y-11507782D02*
X12854398Y-11517306D01*
X12854398Y-11517306D02*
X12863922Y-11536353D01*
X12863922Y-11536353D02*
X12863922Y-11641115D01*
X12863922Y-11536353D02*
X12873446Y-11517306D01*
X12873446Y-11517306D02*
X12892493Y-11507782D01*
X12892493Y-11507782D02*
X12921065Y-11507782D01*
X12921065Y-11507782D02*
X12940112Y-11517306D01*
X12940112Y-11517306D02*
X12949636Y-11536353D01*
X12949636Y-11536353D02*
X12949636Y-11641115D01*
X13340112Y-11431591D02*
X13168684Y-11688734D01*
X13597255Y-11441115D02*
X13616303Y-11441115D01*
X13616303Y-11441115D02*
X13635350Y-11450639D01*
X13635350Y-11450639D02*
X13644874Y-11460163D01*
X13644874Y-11460163D02*
X13654398Y-11479210D01*
X13654398Y-11479210D02*
X13663922Y-11517306D01*
X13663922Y-11517306D02*
X13663922Y-11564925D01*
X13663922Y-11564925D02*
X13654398Y-11603020D01*
X13654398Y-11603020D02*
X13644874Y-11622068D01*
X13644874Y-11622068D02*
X13635350Y-11631591D01*
X13635350Y-11631591D02*
X13616303Y-11641115D01*
X13616303Y-11641115D02*
X13597255Y-11641115D01*
X13597255Y-11641115D02*
X13578208Y-11631591D01*
X13578208Y-11631591D02*
X13568684Y-11622068D01*
X13568684Y-11622068D02*
X13559160Y-11603020D01*
X13559160Y-11603020D02*
X13549636Y-11564925D01*
X13549636Y-11564925D02*
X13549636Y-11517306D01*
X13549636Y-11517306D02*
X13559160Y-11479210D01*
X13559160Y-11479210D02*
X13568684Y-11460163D01*
X13568684Y-11460163D02*
X13578208Y-11450639D01*
X13578208Y-11450639D02*
X13597255Y-11441115D01*
X13749636Y-11622068D02*
X13759160Y-11631591D01*
X13759160Y-11631591D02*
X13749636Y-11641115D01*
X13749636Y-11641115D02*
X13740112Y-11631591D01*
X13740112Y-11631591D02*
X13749636Y-11622068D01*
X13749636Y-11622068D02*
X13749636Y-11641115D01*
X13882969Y-11441115D02*
X13902017Y-11441115D01*
X13902017Y-11441115D02*
X13921065Y-11450639D01*
X13921065Y-11450639D02*
X13930589Y-11460163D01*
X13930589Y-11460163D02*
X13940112Y-11479210D01*
X13940112Y-11479210D02*
X13949636Y-11517306D01*
X13949636Y-11517306D02*
X13949636Y-11564925D01*
X13949636Y-11564925D02*
X13940112Y-11603020D01*
X13940112Y-11603020D02*
X13930589Y-11622068D01*
X13930589Y-11622068D02*
X13921065Y-11631591D01*
X13921065Y-11631591D02*
X13902017Y-11641115D01*
X13902017Y-11641115D02*
X13882969Y-11641115D01*
X13882969Y-11641115D02*
X13863922Y-11631591D01*
X13863922Y-11631591D02*
X13854398Y-11622068D01*
X13854398Y-11622068D02*
X13844874Y-11603020D01*
X13844874Y-11603020D02*
X13835350Y-11564925D01*
X13835350Y-11564925D02*
X13835350Y-11517306D01*
X13835350Y-11517306D02*
X13844874Y-11479210D01*
X13844874Y-11479210D02*
X13854398Y-11460163D01*
X13854398Y-11460163D02*
X13863922Y-11450639D01*
X13863922Y-11450639D02*
X13882969Y-11441115D01*
X14016303Y-11441115D02*
X14140112Y-11441115D01*
X14140112Y-11441115D02*
X14073446Y-11517306D01*
X14073446Y-11517306D02*
X14102017Y-11517306D01*
X14102017Y-11517306D02*
X14121065Y-11526829D01*
X14121065Y-11526829D02*
X14130589Y-11536353D01*
X14130589Y-11536353D02*
X14140112Y-11555401D01*
X14140112Y-11555401D02*
X14140112Y-11603020D01*
X14140112Y-11603020D02*
X14130589Y-11622068D01*
X14130589Y-11622068D02*
X14121065Y-11631591D01*
X14121065Y-11631591D02*
X14102017Y-11641115D01*
X14102017Y-11641115D02*
X14044874Y-11641115D01*
X14044874Y-11641115D02*
X14025827Y-11631591D01*
X14025827Y-11631591D02*
X14016303Y-11622068D01*
X14330589Y-11641115D02*
X14216303Y-11641115D01*
X14273446Y-11641115D02*
X14273446Y-11441115D01*
X14273446Y-11441115D02*
X14254398Y-11469687D01*
X14254398Y-11469687D02*
X14235350Y-11488734D01*
X14235350Y-11488734D02*
X14216303Y-11498258D01*
X14511541Y-11441115D02*
X14416303Y-11441115D01*
X14416303Y-11441115D02*
X14406779Y-11536353D01*
X14406779Y-11536353D02*
X14416303Y-11526829D01*
X14416303Y-11526829D02*
X14435350Y-11517306D01*
X14435350Y-11517306D02*
X14482970Y-11517306D01*
X14482970Y-11517306D02*
X14502017Y-11526829D01*
X14502017Y-11526829D02*
X14511541Y-11536353D01*
X14511541Y-11536353D02*
X14521065Y-11555401D01*
X14521065Y-11555401D02*
X14521065Y-11603020D01*
X14521065Y-11603020D02*
X14511541Y-11622068D01*
X14511541Y-11622068D02*
X14502017Y-11631591D01*
X14502017Y-11631591D02*
X14482970Y-11641115D01*
X14482970Y-11641115D02*
X14435350Y-11641115D01*
X14435350Y-11641115D02*
X14416303Y-11631591D01*
X14416303Y-11631591D02*
X14406779Y-11622068D01*
X14597255Y-11441115D02*
X14597255Y-11479210D01*
X14673446Y-11441115D02*
X14673446Y-11479210D01*
X14968684Y-11717306D02*
X14959160Y-11707782D01*
X14959160Y-11707782D02*
X14940112Y-11679210D01*
X14940112Y-11679210D02*
X14930589Y-11660163D01*
X14930589Y-11660163D02*
X14921065Y-11631591D01*
X14921065Y-11631591D02*
X14911541Y-11583972D01*
X14911541Y-11583972D02*
X14911541Y-11545877D01*
X14911541Y-11545877D02*
X14921065Y-11498258D01*
X14921065Y-11498258D02*
X14930589Y-11469687D01*
X14930589Y-11469687D02*
X14940112Y-11450639D01*
X14940112Y-11450639D02*
X14959160Y-11422068D01*
X14959160Y-11422068D02*
X14968684Y-11412544D01*
X15149636Y-11641115D02*
X15035351Y-11641115D01*
X15092493Y-11641115D02*
X15092493Y-11441115D01*
X15092493Y-11441115D02*
X15073446Y-11469687D01*
X15073446Y-11469687D02*
X15054398Y-11488734D01*
X15054398Y-11488734D02*
X15035351Y-11498258D01*
X15244874Y-11641115D02*
X15282970Y-11641115D01*
X15282970Y-11641115D02*
X15302017Y-11631591D01*
X15302017Y-11631591D02*
X15311541Y-11622068D01*
X15311541Y-11622068D02*
X15330589Y-11593496D01*
X15330589Y-11593496D02*
X15340112Y-11555401D01*
X15340112Y-11555401D02*
X15340112Y-11479210D01*
X15340112Y-11479210D02*
X15330589Y-11460163D01*
X15330589Y-11460163D02*
X15321065Y-11450639D01*
X15321065Y-11450639D02*
X15302017Y-11441115D01*
X15302017Y-11441115D02*
X15263922Y-11441115D01*
X15263922Y-11441115D02*
X15244874Y-11450639D01*
X15244874Y-11450639D02*
X15235351Y-11460163D01*
X15235351Y-11460163D02*
X15225827Y-11479210D01*
X15225827Y-11479210D02*
X15225827Y-11526829D01*
X15225827Y-11526829D02*
X15235351Y-11545877D01*
X15235351Y-11545877D02*
X15244874Y-11555401D01*
X15244874Y-11555401D02*
X15263922Y-11564925D01*
X15263922Y-11564925D02*
X15302017Y-11564925D01*
X15302017Y-11564925D02*
X15321065Y-11555401D01*
X15321065Y-11555401D02*
X15330589Y-11545877D01*
X15330589Y-11545877D02*
X15340112Y-11526829D01*
X15578208Y-11641115D02*
X15578208Y-11441115D01*
X15663922Y-11641115D02*
X15663922Y-11536353D01*
X15663922Y-11536353D02*
X15654398Y-11517306D01*
X15654398Y-11517306D02*
X15635351Y-11507782D01*
X15635351Y-11507782D02*
X15606779Y-11507782D01*
X15606779Y-11507782D02*
X15587732Y-11517306D01*
X15587732Y-11517306D02*
X15578208Y-11526829D01*
X15787732Y-11641115D02*
X15768684Y-11631591D01*
X15768684Y-11631591D02*
X15759160Y-11622068D01*
X15759160Y-11622068D02*
X15749636Y-11603020D01*
X15749636Y-11603020D02*
X15749636Y-11545877D01*
X15749636Y-11545877D02*
X15759160Y-11526829D01*
X15759160Y-11526829D02*
X15768684Y-11517306D01*
X15768684Y-11517306D02*
X15787732Y-11507782D01*
X15787732Y-11507782D02*
X15816303Y-11507782D01*
X15816303Y-11507782D02*
X15835351Y-11517306D01*
X15835351Y-11517306D02*
X15844874Y-11526829D01*
X15844874Y-11526829D02*
X15854398Y-11545877D01*
X15854398Y-11545877D02*
X15854398Y-11603020D01*
X15854398Y-11603020D02*
X15844874Y-11622068D01*
X15844874Y-11622068D02*
X15835351Y-11631591D01*
X15835351Y-11631591D02*
X15816303Y-11641115D01*
X15816303Y-11641115D02*
X15787732Y-11641115D01*
X15968684Y-11641115D02*
X15949636Y-11631591D01*
X15949636Y-11631591D02*
X15940113Y-11612544D01*
X15940113Y-11612544D02*
X15940113Y-11441115D01*
X16121065Y-11631591D02*
X16102017Y-11641115D01*
X16102017Y-11641115D02*
X16063922Y-11641115D01*
X16063922Y-11641115D02*
X16044874Y-11631591D01*
X16044874Y-11631591D02*
X16035351Y-11612544D01*
X16035351Y-11612544D02*
X16035351Y-11536353D01*
X16035351Y-11536353D02*
X16044874Y-11517306D01*
X16044874Y-11517306D02*
X16063922Y-11507782D01*
X16063922Y-11507782D02*
X16102017Y-11507782D01*
X16102017Y-11507782D02*
X16121065Y-11517306D01*
X16121065Y-11517306D02*
X16130589Y-11536353D01*
X16130589Y-11536353D02*
X16130589Y-11555401D01*
X16130589Y-11555401D02*
X16035351Y-11574449D01*
X16206779Y-11631591D02*
X16225827Y-11641115D01*
X16225827Y-11641115D02*
X16263922Y-11641115D01*
X16263922Y-11641115D02*
X16282970Y-11631591D01*
X16282970Y-11631591D02*
X16292494Y-11612544D01*
X16292494Y-11612544D02*
X16292494Y-11603020D01*
X16292494Y-11603020D02*
X16282970Y-11583972D01*
X16282970Y-11583972D02*
X16263922Y-11574449D01*
X16263922Y-11574449D02*
X16235351Y-11574449D01*
X16235351Y-11574449D02*
X16216303Y-11564925D01*
X16216303Y-11564925D02*
X16206779Y-11545877D01*
X16206779Y-11545877D02*
X16206779Y-11536353D01*
X16206779Y-11536353D02*
X16216303Y-11517306D01*
X16216303Y-11517306D02*
X16235351Y-11507782D01*
X16235351Y-11507782D02*
X16263922Y-11507782D01*
X16263922Y-11507782D02*
X16282970Y-11517306D01*
X16359160Y-11717306D02*
X16368684Y-11707782D01*
X16368684Y-11707782D02*
X16387732Y-11679210D01*
X16387732Y-11679210D02*
X16397255Y-11660163D01*
X16397255Y-11660163D02*
X16406779Y-11631591D01*
X16406779Y-11631591D02*
X16416303Y-11583972D01*
X16416303Y-11583972D02*
X16416303Y-11545877D01*
X16416303Y-11545877D02*
X16406779Y-11498258D01*
X16406779Y-11498258D02*
X16397255Y-11469687D01*
X16397255Y-11469687D02*
X16387732Y-11450639D01*
X16387732Y-11450639D02*
X16368684Y-11422068D01*
X16368684Y-11422068D02*
X16359160Y-11412544D01*
D12*
X11348621Y-11768631D02*
X11348621Y-11858631D01*
X11303621Y-11813631D02*
X11393621Y-11813631D01*
D11*
X11692493Y-11705115D02*
X11711541Y-11705115D01*
X11711541Y-11705115D02*
X11730588Y-11714639D01*
X11730588Y-11714639D02*
X11740112Y-11724163D01*
X11740112Y-11724163D02*
X11749636Y-11743210D01*
X11749636Y-11743210D02*
X11759160Y-11781306D01*
X11759160Y-11781306D02*
X11759160Y-11828925D01*
X11759160Y-11828925D02*
X11749636Y-11867020D01*
X11749636Y-11867020D02*
X11740112Y-11886068D01*
X11740112Y-11886068D02*
X11730588Y-11895591D01*
X11730588Y-11895591D02*
X11711541Y-11905115D01*
X11711541Y-11905115D02*
X11692493Y-11905115D01*
X11692493Y-11905115D02*
X11673445Y-11895591D01*
X11673445Y-11895591D02*
X11663922Y-11886068D01*
X11663922Y-11886068D02*
X11654398Y-11867020D01*
X11654398Y-11867020D02*
X11644874Y-11828925D01*
X11644874Y-11828925D02*
X11644874Y-11781306D01*
X11644874Y-11781306D02*
X11654398Y-11743210D01*
X11654398Y-11743210D02*
X11663922Y-11724163D01*
X11663922Y-11724163D02*
X11673445Y-11714639D01*
X11673445Y-11714639D02*
X11692493Y-11705115D01*
X11844874Y-11886068D02*
X11854398Y-11895591D01*
X11854398Y-11895591D02*
X11844874Y-11905115D01*
X11844874Y-11905115D02*
X11835350Y-11895591D01*
X11835350Y-11895591D02*
X11844874Y-11886068D01*
X11844874Y-11886068D02*
X11844874Y-11905115D01*
X11949636Y-11905115D02*
X11987731Y-11905115D01*
X11987731Y-11905115D02*
X12006779Y-11895591D01*
X12006779Y-11895591D02*
X12016303Y-11886068D01*
X12016303Y-11886068D02*
X12035350Y-11857496D01*
X12035350Y-11857496D02*
X12044874Y-11819401D01*
X12044874Y-11819401D02*
X12044874Y-11743210D01*
X12044874Y-11743210D02*
X12035350Y-11724163D01*
X12035350Y-11724163D02*
X12025826Y-11714639D01*
X12025826Y-11714639D02*
X12006779Y-11705115D01*
X12006779Y-11705115D02*
X11968684Y-11705115D01*
X11968684Y-11705115D02*
X11949636Y-11714639D01*
X11949636Y-11714639D02*
X11940112Y-11724163D01*
X11940112Y-11724163D02*
X11930588Y-11743210D01*
X11930588Y-11743210D02*
X11930588Y-11790829D01*
X11930588Y-11790829D02*
X11940112Y-11809877D01*
X11940112Y-11809877D02*
X11949636Y-11819401D01*
X11949636Y-11819401D02*
X11968684Y-11828925D01*
X11968684Y-11828925D02*
X12006779Y-11828925D01*
X12006779Y-11828925D02*
X12025826Y-11819401D01*
X12025826Y-11819401D02*
X12035350Y-11809877D01*
X12035350Y-11809877D02*
X12044874Y-11790829D01*
X12168684Y-11705115D02*
X12187731Y-11705115D01*
X12187731Y-11705115D02*
X12206779Y-11714639D01*
X12206779Y-11714639D02*
X12216303Y-11724163D01*
X12216303Y-11724163D02*
X12225826Y-11743210D01*
X12225826Y-11743210D02*
X12235350Y-11781306D01*
X12235350Y-11781306D02*
X12235350Y-11828925D01*
X12235350Y-11828925D02*
X12225826Y-11867020D01*
X12225826Y-11867020D02*
X12216303Y-11886068D01*
X12216303Y-11886068D02*
X12206779Y-11895591D01*
X12206779Y-11895591D02*
X12187731Y-11905115D01*
X12187731Y-11905115D02*
X12168684Y-11905115D01*
X12168684Y-11905115D02*
X12149636Y-11895591D01*
X12149636Y-11895591D02*
X12140112Y-11886068D01*
X12140112Y-11886068D02*
X12130588Y-11867020D01*
X12130588Y-11867020D02*
X12121065Y-11828925D01*
X12121065Y-11828925D02*
X12121065Y-11781306D01*
X12121065Y-11781306D02*
X12130588Y-11743210D01*
X12130588Y-11743210D02*
X12140112Y-11724163D01*
X12140112Y-11724163D02*
X12149636Y-11714639D01*
X12149636Y-11714639D02*
X12168684Y-11705115D01*
X12359160Y-11705115D02*
X12378207Y-11705115D01*
X12378207Y-11705115D02*
X12397255Y-11714639D01*
X12397255Y-11714639D02*
X12406779Y-11724163D01*
X12406779Y-11724163D02*
X12416303Y-11743210D01*
X12416303Y-11743210D02*
X12425826Y-11781306D01*
X12425826Y-11781306D02*
X12425826Y-11828925D01*
X12425826Y-11828925D02*
X12416303Y-11867020D01*
X12416303Y-11867020D02*
X12406779Y-11886068D01*
X12406779Y-11886068D02*
X12397255Y-11895591D01*
X12397255Y-11895591D02*
X12378207Y-11905115D01*
X12378207Y-11905115D02*
X12359160Y-11905115D01*
X12359160Y-11905115D02*
X12340112Y-11895591D01*
X12340112Y-11895591D02*
X12330588Y-11886068D01*
X12330588Y-11886068D02*
X12321065Y-11867020D01*
X12321065Y-11867020D02*
X12311541Y-11828925D01*
X12311541Y-11828925D02*
X12311541Y-11781306D01*
X12311541Y-11781306D02*
X12321065Y-11743210D01*
X12321065Y-11743210D02*
X12330588Y-11724163D01*
X12330588Y-11724163D02*
X12340112Y-11714639D01*
X12340112Y-11714639D02*
X12359160Y-11705115D01*
X12511541Y-11905115D02*
X12511541Y-11771782D01*
X12511541Y-11790829D02*
X12521065Y-11781306D01*
X12521065Y-11781306D02*
X12540112Y-11771782D01*
X12540112Y-11771782D02*
X12568684Y-11771782D01*
X12568684Y-11771782D02*
X12587731Y-11781306D01*
X12587731Y-11781306D02*
X12597255Y-11800353D01*
X12597255Y-11800353D02*
X12597255Y-11905115D01*
X12597255Y-11800353D02*
X12606779Y-11781306D01*
X12606779Y-11781306D02*
X12625826Y-11771782D01*
X12625826Y-11771782D02*
X12654398Y-11771782D01*
X12654398Y-11771782D02*
X12673446Y-11781306D01*
X12673446Y-11781306D02*
X12682969Y-11800353D01*
X12682969Y-11800353D02*
X12682969Y-11905115D01*
X12778207Y-11905115D02*
X12778207Y-11771782D01*
X12778207Y-11790829D02*
X12787731Y-11781306D01*
X12787731Y-11781306D02*
X12806779Y-11771782D01*
X12806779Y-11771782D02*
X12835350Y-11771782D01*
X12835350Y-11771782D02*
X12854398Y-11781306D01*
X12854398Y-11781306D02*
X12863922Y-11800353D01*
X12863922Y-11800353D02*
X12863922Y-11905115D01*
X12863922Y-11800353D02*
X12873446Y-11781306D01*
X12873446Y-11781306D02*
X12892493Y-11771782D01*
X12892493Y-11771782D02*
X12921065Y-11771782D01*
X12921065Y-11771782D02*
X12940112Y-11781306D01*
X12940112Y-11781306D02*
X12949636Y-11800353D01*
X12949636Y-11800353D02*
X12949636Y-11905115D01*
X13340112Y-11695591D02*
X13168684Y-11952734D01*
X13597255Y-11705115D02*
X13616303Y-11705115D01*
X13616303Y-11705115D02*
X13635350Y-11714639D01*
X13635350Y-11714639D02*
X13644874Y-11724163D01*
X13644874Y-11724163D02*
X13654398Y-11743210D01*
X13654398Y-11743210D02*
X13663922Y-11781306D01*
X13663922Y-11781306D02*
X13663922Y-11828925D01*
X13663922Y-11828925D02*
X13654398Y-11867020D01*
X13654398Y-11867020D02*
X13644874Y-11886068D01*
X13644874Y-11886068D02*
X13635350Y-11895591D01*
X13635350Y-11895591D02*
X13616303Y-11905115D01*
X13616303Y-11905115D02*
X13597255Y-11905115D01*
X13597255Y-11905115D02*
X13578208Y-11895591D01*
X13578208Y-11895591D02*
X13568684Y-11886068D01*
X13568684Y-11886068D02*
X13559160Y-11867020D01*
X13559160Y-11867020D02*
X13549636Y-11828925D01*
X13549636Y-11828925D02*
X13549636Y-11781306D01*
X13549636Y-11781306D02*
X13559160Y-11743210D01*
X13559160Y-11743210D02*
X13568684Y-11724163D01*
X13568684Y-11724163D02*
X13578208Y-11714639D01*
X13578208Y-11714639D02*
X13597255Y-11705115D01*
X13749636Y-11886068D02*
X13759160Y-11895591D01*
X13759160Y-11895591D02*
X13749636Y-11905115D01*
X13749636Y-11905115D02*
X13740112Y-11895591D01*
X13740112Y-11895591D02*
X13749636Y-11886068D01*
X13749636Y-11886068D02*
X13749636Y-11905115D01*
X13882969Y-11705115D02*
X13902017Y-11705115D01*
X13902017Y-11705115D02*
X13921065Y-11714639D01*
X13921065Y-11714639D02*
X13930589Y-11724163D01*
X13930589Y-11724163D02*
X13940112Y-11743210D01*
X13940112Y-11743210D02*
X13949636Y-11781306D01*
X13949636Y-11781306D02*
X13949636Y-11828925D01*
X13949636Y-11828925D02*
X13940112Y-11867020D01*
X13940112Y-11867020D02*
X13930589Y-11886068D01*
X13930589Y-11886068D02*
X13921065Y-11895591D01*
X13921065Y-11895591D02*
X13902017Y-11905115D01*
X13902017Y-11905115D02*
X13882969Y-11905115D01*
X13882969Y-11905115D02*
X13863922Y-11895591D01*
X13863922Y-11895591D02*
X13854398Y-11886068D01*
X13854398Y-11886068D02*
X13844874Y-11867020D01*
X13844874Y-11867020D02*
X13835350Y-11828925D01*
X13835350Y-11828925D02*
X13835350Y-11781306D01*
X13835350Y-11781306D02*
X13844874Y-11743210D01*
X13844874Y-11743210D02*
X13854398Y-11724163D01*
X13854398Y-11724163D02*
X13863922Y-11714639D01*
X13863922Y-11714639D02*
X13882969Y-11705115D01*
X14016303Y-11705115D02*
X14140112Y-11705115D01*
X14140112Y-11705115D02*
X14073446Y-11781306D01*
X14073446Y-11781306D02*
X14102017Y-11781306D01*
X14102017Y-11781306D02*
X14121065Y-11790829D01*
X14121065Y-11790829D02*
X14130589Y-11800353D01*
X14130589Y-11800353D02*
X14140112Y-11819401D01*
X14140112Y-11819401D02*
X14140112Y-11867020D01*
X14140112Y-11867020D02*
X14130589Y-11886068D01*
X14130589Y-11886068D02*
X14121065Y-11895591D01*
X14121065Y-11895591D02*
X14102017Y-11905115D01*
X14102017Y-11905115D02*
X14044874Y-11905115D01*
X14044874Y-11905115D02*
X14025827Y-11895591D01*
X14025827Y-11895591D02*
X14016303Y-11886068D01*
X14321065Y-11705115D02*
X14225827Y-11705115D01*
X14225827Y-11705115D02*
X14216303Y-11800353D01*
X14216303Y-11800353D02*
X14225827Y-11790829D01*
X14225827Y-11790829D02*
X14244874Y-11781306D01*
X14244874Y-11781306D02*
X14292493Y-11781306D01*
X14292493Y-11781306D02*
X14311541Y-11790829D01*
X14311541Y-11790829D02*
X14321065Y-11800353D01*
X14321065Y-11800353D02*
X14330589Y-11819401D01*
X14330589Y-11819401D02*
X14330589Y-11867020D01*
X14330589Y-11867020D02*
X14321065Y-11886068D01*
X14321065Y-11886068D02*
X14311541Y-11895591D01*
X14311541Y-11895591D02*
X14292493Y-11905115D01*
X14292493Y-11905115D02*
X14244874Y-11905115D01*
X14244874Y-11905115D02*
X14225827Y-11895591D01*
X14225827Y-11895591D02*
X14216303Y-11886068D01*
X14502017Y-11771782D02*
X14502017Y-11905115D01*
X14454398Y-11695591D02*
X14406779Y-11838449D01*
X14406779Y-11838449D02*
X14530589Y-11838449D01*
X14597255Y-11705115D02*
X14597255Y-11743210D01*
X14673446Y-11705115D02*
X14673446Y-11743210D01*
X14968684Y-11981306D02*
X14959160Y-11971782D01*
X14959160Y-11971782D02*
X14940112Y-11943210D01*
X14940112Y-11943210D02*
X14930589Y-11924163D01*
X14930589Y-11924163D02*
X14921065Y-11895591D01*
X14921065Y-11895591D02*
X14911541Y-11847972D01*
X14911541Y-11847972D02*
X14911541Y-11809877D01*
X14911541Y-11809877D02*
X14921065Y-11762258D01*
X14921065Y-11762258D02*
X14930589Y-11733687D01*
X14930589Y-11733687D02*
X14940112Y-11714639D01*
X14940112Y-11714639D02*
X14959160Y-11686068D01*
X14959160Y-11686068D02*
X14968684Y-11676544D01*
X15035351Y-11724163D02*
X15044874Y-11714639D01*
X15044874Y-11714639D02*
X15063922Y-11705115D01*
X15063922Y-11705115D02*
X15111541Y-11705115D01*
X15111541Y-11705115D02*
X15130589Y-11714639D01*
X15130589Y-11714639D02*
X15140112Y-11724163D01*
X15140112Y-11724163D02*
X15149636Y-11743210D01*
X15149636Y-11743210D02*
X15149636Y-11762258D01*
X15149636Y-11762258D02*
X15140112Y-11790829D01*
X15140112Y-11790829D02*
X15025827Y-11905115D01*
X15025827Y-11905115D02*
X15149636Y-11905115D01*
X15387732Y-11905115D02*
X15387732Y-11705115D01*
X15473446Y-11905115D02*
X15473446Y-11800353D01*
X15473446Y-11800353D02*
X15463922Y-11781306D01*
X15463922Y-11781306D02*
X15444874Y-11771782D01*
X15444874Y-11771782D02*
X15416303Y-11771782D01*
X15416303Y-11771782D02*
X15397255Y-11781306D01*
X15397255Y-11781306D02*
X15387732Y-11790829D01*
X15597255Y-11905115D02*
X15578208Y-11895591D01*
X15578208Y-11895591D02*
X15568684Y-11886068D01*
X15568684Y-11886068D02*
X15559160Y-11867020D01*
X15559160Y-11867020D02*
X15559160Y-11809877D01*
X15559160Y-11809877D02*
X15568684Y-11790829D01*
X15568684Y-11790829D02*
X15578208Y-11781306D01*
X15578208Y-11781306D02*
X15597255Y-11771782D01*
X15597255Y-11771782D02*
X15625827Y-11771782D01*
X15625827Y-11771782D02*
X15644874Y-11781306D01*
X15644874Y-11781306D02*
X15654398Y-11790829D01*
X15654398Y-11790829D02*
X15663922Y-11809877D01*
X15663922Y-11809877D02*
X15663922Y-11867020D01*
X15663922Y-11867020D02*
X15654398Y-11886068D01*
X15654398Y-11886068D02*
X15644874Y-11895591D01*
X15644874Y-11895591D02*
X15625827Y-11905115D01*
X15625827Y-11905115D02*
X15597255Y-11905115D01*
X15778208Y-11905115D02*
X15759160Y-11895591D01*
X15759160Y-11895591D02*
X15749636Y-11876544D01*
X15749636Y-11876544D02*
X15749636Y-11705115D01*
X15930589Y-11895591D02*
X15911541Y-11905115D01*
X15911541Y-11905115D02*
X15873446Y-11905115D01*
X15873446Y-11905115D02*
X15854398Y-11895591D01*
X15854398Y-11895591D02*
X15844874Y-11876544D01*
X15844874Y-11876544D02*
X15844874Y-11800353D01*
X15844874Y-11800353D02*
X15854398Y-11781306D01*
X15854398Y-11781306D02*
X15873446Y-11771782D01*
X15873446Y-11771782D02*
X15911541Y-11771782D01*
X15911541Y-11771782D02*
X15930589Y-11781306D01*
X15930589Y-11781306D02*
X15940113Y-11800353D01*
X15940113Y-11800353D02*
X15940113Y-11819401D01*
X15940113Y-11819401D02*
X15844874Y-11838449D01*
X16016303Y-11895591D02*
X16035351Y-11905115D01*
X16035351Y-11905115D02*
X16073446Y-11905115D01*
X16073446Y-11905115D02*
X16092494Y-11895591D01*
X16092494Y-11895591D02*
X16102017Y-11876544D01*
X16102017Y-11876544D02*
X16102017Y-11867020D01*
X16102017Y-11867020D02*
X16092494Y-11847972D01*
X16092494Y-11847972D02*
X16073446Y-11838449D01*
X16073446Y-11838449D02*
X16044874Y-11838449D01*
X16044874Y-11838449D02*
X16025827Y-11828925D01*
X16025827Y-11828925D02*
X16016303Y-11809877D01*
X16016303Y-11809877D02*
X16016303Y-11800353D01*
X16016303Y-11800353D02*
X16025827Y-11781306D01*
X16025827Y-11781306D02*
X16044874Y-11771782D01*
X16044874Y-11771782D02*
X16073446Y-11771782D01*
X16073446Y-11771782D02*
X16092494Y-11781306D01*
X16168684Y-11981306D02*
X16178208Y-11971782D01*
X16178208Y-11971782D02*
X16197255Y-11943210D01*
X16197255Y-11943210D02*
X16206779Y-11924163D01*
X16206779Y-11924163D02*
X16216303Y-11895591D01*
X16216303Y-11895591D02*
X16225827Y-11847972D01*
X16225827Y-11847972D02*
X16225827Y-11809877D01*
X16225827Y-11809877D02*
X16216303Y-11762258D01*
X16216303Y-11762258D02*
X16206779Y-11733687D01*
X16206779Y-11733687D02*
X16197255Y-11714639D01*
X16197255Y-11714639D02*
X16178208Y-11686068D01*
X16178208Y-11686068D02*
X16168684Y-11676544D01*
D12*
X11378977Y-12112987D02*
X11378977Y-12042276D01*
X11308265Y-12042276D01*
X11308265Y-12112987D01*
X11378977Y-12112987D01*
D11*
X11759160Y-12169115D02*
X11644874Y-12169115D01*
X11702017Y-12169115D02*
X11702017Y-11969115D01*
X11702017Y-11969115D02*
X11682969Y-11997687D01*
X11682969Y-11997687D02*
X11663922Y-12016734D01*
X11663922Y-12016734D02*
X11644874Y-12026258D01*
X11844874Y-12150068D02*
X11854398Y-12159591D01*
X11854398Y-12159591D02*
X11844874Y-12169115D01*
X11844874Y-12169115D02*
X11835350Y-12159591D01*
X11835350Y-12159591D02*
X11844874Y-12150068D01*
X11844874Y-12150068D02*
X11844874Y-12169115D01*
X11978207Y-11969115D02*
X11997255Y-11969115D01*
X11997255Y-11969115D02*
X12016303Y-11978639D01*
X12016303Y-11978639D02*
X12025826Y-11988163D01*
X12025826Y-11988163D02*
X12035350Y-12007210D01*
X12035350Y-12007210D02*
X12044874Y-12045306D01*
X12044874Y-12045306D02*
X12044874Y-12092925D01*
X12044874Y-12092925D02*
X12035350Y-12131020D01*
X12035350Y-12131020D02*
X12025826Y-12150068D01*
X12025826Y-12150068D02*
X12016303Y-12159591D01*
X12016303Y-12159591D02*
X11997255Y-12169115D01*
X11997255Y-12169115D02*
X11978207Y-12169115D01*
X11978207Y-12169115D02*
X11959160Y-12159591D01*
X11959160Y-12159591D02*
X11949636Y-12150068D01*
X11949636Y-12150068D02*
X11940112Y-12131020D01*
X11940112Y-12131020D02*
X11930588Y-12092925D01*
X11930588Y-12092925D02*
X11930588Y-12045306D01*
X11930588Y-12045306D02*
X11940112Y-12007210D01*
X11940112Y-12007210D02*
X11949636Y-11988163D01*
X11949636Y-11988163D02*
X11959160Y-11978639D01*
X11959160Y-11978639D02*
X11978207Y-11969115D01*
X12168684Y-11969115D02*
X12187731Y-11969115D01*
X12187731Y-11969115D02*
X12206779Y-11978639D01*
X12206779Y-11978639D02*
X12216303Y-11988163D01*
X12216303Y-11988163D02*
X12225826Y-12007210D01*
X12225826Y-12007210D02*
X12235350Y-12045306D01*
X12235350Y-12045306D02*
X12235350Y-12092925D01*
X12235350Y-12092925D02*
X12225826Y-12131020D01*
X12225826Y-12131020D02*
X12216303Y-12150068D01*
X12216303Y-12150068D02*
X12206779Y-12159591D01*
X12206779Y-12159591D02*
X12187731Y-12169115D01*
X12187731Y-12169115D02*
X12168684Y-12169115D01*
X12168684Y-12169115D02*
X12149636Y-12159591D01*
X12149636Y-12159591D02*
X12140112Y-12150068D01*
X12140112Y-12150068D02*
X12130588Y-12131020D01*
X12130588Y-12131020D02*
X12121065Y-12092925D01*
X12121065Y-12092925D02*
X12121065Y-12045306D01*
X12121065Y-12045306D02*
X12130588Y-12007210D01*
X12130588Y-12007210D02*
X12140112Y-11988163D01*
X12140112Y-11988163D02*
X12149636Y-11978639D01*
X12149636Y-11978639D02*
X12168684Y-11969115D01*
X12359160Y-11969115D02*
X12378207Y-11969115D01*
X12378207Y-11969115D02*
X12397255Y-11978639D01*
X12397255Y-11978639D02*
X12406779Y-11988163D01*
X12406779Y-11988163D02*
X12416303Y-12007210D01*
X12416303Y-12007210D02*
X12425826Y-12045306D01*
X12425826Y-12045306D02*
X12425826Y-12092925D01*
X12425826Y-12092925D02*
X12416303Y-12131020D01*
X12416303Y-12131020D02*
X12406779Y-12150068D01*
X12406779Y-12150068D02*
X12397255Y-12159591D01*
X12397255Y-12159591D02*
X12378207Y-12169115D01*
X12378207Y-12169115D02*
X12359160Y-12169115D01*
X12359160Y-12169115D02*
X12340112Y-12159591D01*
X12340112Y-12159591D02*
X12330588Y-12150068D01*
X12330588Y-12150068D02*
X12321065Y-12131020D01*
X12321065Y-12131020D02*
X12311541Y-12092925D01*
X12311541Y-12092925D02*
X12311541Y-12045306D01*
X12311541Y-12045306D02*
X12321065Y-12007210D01*
X12321065Y-12007210D02*
X12330588Y-11988163D01*
X12330588Y-11988163D02*
X12340112Y-11978639D01*
X12340112Y-11978639D02*
X12359160Y-11969115D01*
X12511541Y-12169115D02*
X12511541Y-12035782D01*
X12511541Y-12054829D02*
X12521065Y-12045306D01*
X12521065Y-12045306D02*
X12540112Y-12035782D01*
X12540112Y-12035782D02*
X12568684Y-12035782D01*
X12568684Y-12035782D02*
X12587731Y-12045306D01*
X12587731Y-12045306D02*
X12597255Y-12064353D01*
X12597255Y-12064353D02*
X12597255Y-12169115D01*
X12597255Y-12064353D02*
X12606779Y-12045306D01*
X12606779Y-12045306D02*
X12625826Y-12035782D01*
X12625826Y-12035782D02*
X12654398Y-12035782D01*
X12654398Y-12035782D02*
X12673446Y-12045306D01*
X12673446Y-12045306D02*
X12682969Y-12064353D01*
X12682969Y-12064353D02*
X12682969Y-12169115D01*
X12778207Y-12169115D02*
X12778207Y-12035782D01*
X12778207Y-12054829D02*
X12787731Y-12045306D01*
X12787731Y-12045306D02*
X12806779Y-12035782D01*
X12806779Y-12035782D02*
X12835350Y-12035782D01*
X12835350Y-12035782D02*
X12854398Y-12045306D01*
X12854398Y-12045306D02*
X12863922Y-12064353D01*
X12863922Y-12064353D02*
X12863922Y-12169115D01*
X12863922Y-12064353D02*
X12873446Y-12045306D01*
X12873446Y-12045306D02*
X12892493Y-12035782D01*
X12892493Y-12035782D02*
X12921065Y-12035782D01*
X12921065Y-12035782D02*
X12940112Y-12045306D01*
X12940112Y-12045306D02*
X12949636Y-12064353D01*
X12949636Y-12064353D02*
X12949636Y-12169115D01*
X13340112Y-11959591D02*
X13168684Y-12216734D01*
X13597255Y-11969115D02*
X13616303Y-11969115D01*
X13616303Y-11969115D02*
X13635350Y-11978639D01*
X13635350Y-11978639D02*
X13644874Y-11988163D01*
X13644874Y-11988163D02*
X13654398Y-12007210D01*
X13654398Y-12007210D02*
X13663922Y-12045306D01*
X13663922Y-12045306D02*
X13663922Y-12092925D01*
X13663922Y-12092925D02*
X13654398Y-12131020D01*
X13654398Y-12131020D02*
X13644874Y-12150068D01*
X13644874Y-12150068D02*
X13635350Y-12159591D01*
X13635350Y-12159591D02*
X13616303Y-12169115D01*
X13616303Y-12169115D02*
X13597255Y-12169115D01*
X13597255Y-12169115D02*
X13578208Y-12159591D01*
X13578208Y-12159591D02*
X13568684Y-12150068D01*
X13568684Y-12150068D02*
X13559160Y-12131020D01*
X13559160Y-12131020D02*
X13549636Y-12092925D01*
X13549636Y-12092925D02*
X13549636Y-12045306D01*
X13549636Y-12045306D02*
X13559160Y-12007210D01*
X13559160Y-12007210D02*
X13568684Y-11988163D01*
X13568684Y-11988163D02*
X13578208Y-11978639D01*
X13578208Y-11978639D02*
X13597255Y-11969115D01*
X13749636Y-12150068D02*
X13759160Y-12159591D01*
X13759160Y-12159591D02*
X13749636Y-12169115D01*
X13749636Y-12169115D02*
X13740112Y-12159591D01*
X13740112Y-12159591D02*
X13749636Y-12150068D01*
X13749636Y-12150068D02*
X13749636Y-12169115D01*
X13882969Y-11969115D02*
X13902017Y-11969115D01*
X13902017Y-11969115D02*
X13921065Y-11978639D01*
X13921065Y-11978639D02*
X13930589Y-11988163D01*
X13930589Y-11988163D02*
X13940112Y-12007210D01*
X13940112Y-12007210D02*
X13949636Y-12045306D01*
X13949636Y-12045306D02*
X13949636Y-12092925D01*
X13949636Y-12092925D02*
X13940112Y-12131020D01*
X13940112Y-12131020D02*
X13930589Y-12150068D01*
X13930589Y-12150068D02*
X13921065Y-12159591D01*
X13921065Y-12159591D02*
X13902017Y-12169115D01*
X13902017Y-12169115D02*
X13882969Y-12169115D01*
X13882969Y-12169115D02*
X13863922Y-12159591D01*
X13863922Y-12159591D02*
X13854398Y-12150068D01*
X13854398Y-12150068D02*
X13844874Y-12131020D01*
X13844874Y-12131020D02*
X13835350Y-12092925D01*
X13835350Y-12092925D02*
X13835350Y-12045306D01*
X13835350Y-12045306D02*
X13844874Y-12007210D01*
X13844874Y-12007210D02*
X13854398Y-11988163D01*
X13854398Y-11988163D02*
X13863922Y-11978639D01*
X13863922Y-11978639D02*
X13882969Y-11969115D01*
X14016303Y-11969115D02*
X14140112Y-11969115D01*
X14140112Y-11969115D02*
X14073446Y-12045306D01*
X14073446Y-12045306D02*
X14102017Y-12045306D01*
X14102017Y-12045306D02*
X14121065Y-12054829D01*
X14121065Y-12054829D02*
X14130589Y-12064353D01*
X14130589Y-12064353D02*
X14140112Y-12083401D01*
X14140112Y-12083401D02*
X14140112Y-12131020D01*
X14140112Y-12131020D02*
X14130589Y-12150068D01*
X14130589Y-12150068D02*
X14121065Y-12159591D01*
X14121065Y-12159591D02*
X14102017Y-12169115D01*
X14102017Y-12169115D02*
X14044874Y-12169115D01*
X14044874Y-12169115D02*
X14025827Y-12159591D01*
X14025827Y-12159591D02*
X14016303Y-12150068D01*
X14235350Y-12169115D02*
X14273446Y-12169115D01*
X14273446Y-12169115D02*
X14292493Y-12159591D01*
X14292493Y-12159591D02*
X14302017Y-12150068D01*
X14302017Y-12150068D02*
X14321065Y-12121496D01*
X14321065Y-12121496D02*
X14330589Y-12083401D01*
X14330589Y-12083401D02*
X14330589Y-12007210D01*
X14330589Y-12007210D02*
X14321065Y-11988163D01*
X14321065Y-11988163D02*
X14311541Y-11978639D01*
X14311541Y-11978639D02*
X14292493Y-11969115D01*
X14292493Y-11969115D02*
X14254398Y-11969115D01*
X14254398Y-11969115D02*
X14235350Y-11978639D01*
X14235350Y-11978639D02*
X14225827Y-11988163D01*
X14225827Y-11988163D02*
X14216303Y-12007210D01*
X14216303Y-12007210D02*
X14216303Y-12054829D01*
X14216303Y-12054829D02*
X14225827Y-12073877D01*
X14225827Y-12073877D02*
X14235350Y-12083401D01*
X14235350Y-12083401D02*
X14254398Y-12092925D01*
X14254398Y-12092925D02*
X14292493Y-12092925D01*
X14292493Y-12092925D02*
X14311541Y-12083401D01*
X14311541Y-12083401D02*
X14321065Y-12073877D01*
X14321065Y-12073877D02*
X14330589Y-12054829D01*
X14502017Y-12035782D02*
X14502017Y-12169115D01*
X14454398Y-11959591D02*
X14406779Y-12102449D01*
X14406779Y-12102449D02*
X14530589Y-12102449D01*
X14597255Y-11969115D02*
X14597255Y-12007210D01*
X14673446Y-11969115D02*
X14673446Y-12007210D01*
X14968684Y-12245306D02*
X14959160Y-12235782D01*
X14959160Y-12235782D02*
X14940112Y-12207210D01*
X14940112Y-12207210D02*
X14930589Y-12188163D01*
X14930589Y-12188163D02*
X14921065Y-12159591D01*
X14921065Y-12159591D02*
X14911541Y-12111972D01*
X14911541Y-12111972D02*
X14911541Y-12073877D01*
X14911541Y-12073877D02*
X14921065Y-12026258D01*
X14921065Y-12026258D02*
X14930589Y-11997687D01*
X14930589Y-11997687D02*
X14940112Y-11978639D01*
X14940112Y-11978639D02*
X14959160Y-11950068D01*
X14959160Y-11950068D02*
X14968684Y-11940544D01*
X15035351Y-11988163D02*
X15044874Y-11978639D01*
X15044874Y-11978639D02*
X15063922Y-11969115D01*
X15063922Y-11969115D02*
X15111541Y-11969115D01*
X15111541Y-11969115D02*
X15130589Y-11978639D01*
X15130589Y-11978639D02*
X15140112Y-11988163D01*
X15140112Y-11988163D02*
X15149636Y-12007210D01*
X15149636Y-12007210D02*
X15149636Y-12026258D01*
X15149636Y-12026258D02*
X15140112Y-12054829D01*
X15140112Y-12054829D02*
X15025827Y-12169115D01*
X15025827Y-12169115D02*
X15149636Y-12169115D01*
X15387732Y-12169115D02*
X15387732Y-11969115D01*
X15473446Y-12169115D02*
X15473446Y-12064353D01*
X15473446Y-12064353D02*
X15463922Y-12045306D01*
X15463922Y-12045306D02*
X15444874Y-12035782D01*
X15444874Y-12035782D02*
X15416303Y-12035782D01*
X15416303Y-12035782D02*
X15397255Y-12045306D01*
X15397255Y-12045306D02*
X15387732Y-12054829D01*
X15597255Y-12169115D02*
X15578208Y-12159591D01*
X15578208Y-12159591D02*
X15568684Y-12150068D01*
X15568684Y-12150068D02*
X15559160Y-12131020D01*
X15559160Y-12131020D02*
X15559160Y-12073877D01*
X15559160Y-12073877D02*
X15568684Y-12054829D01*
X15568684Y-12054829D02*
X15578208Y-12045306D01*
X15578208Y-12045306D02*
X15597255Y-12035782D01*
X15597255Y-12035782D02*
X15625827Y-12035782D01*
X15625827Y-12035782D02*
X15644874Y-12045306D01*
X15644874Y-12045306D02*
X15654398Y-12054829D01*
X15654398Y-12054829D02*
X15663922Y-12073877D01*
X15663922Y-12073877D02*
X15663922Y-12131020D01*
X15663922Y-12131020D02*
X15654398Y-12150068D01*
X15654398Y-12150068D02*
X15644874Y-12159591D01*
X15644874Y-12159591D02*
X15625827Y-12169115D01*
X15625827Y-12169115D02*
X15597255Y-12169115D01*
X15778208Y-12169115D02*
X15759160Y-12159591D01*
X15759160Y-12159591D02*
X15749636Y-12140544D01*
X15749636Y-12140544D02*
X15749636Y-11969115D01*
X15930589Y-12159591D02*
X15911541Y-12169115D01*
X15911541Y-12169115D02*
X15873446Y-12169115D01*
X15873446Y-12169115D02*
X15854398Y-12159591D01*
X15854398Y-12159591D02*
X15844874Y-12140544D01*
X15844874Y-12140544D02*
X15844874Y-12064353D01*
X15844874Y-12064353D02*
X15854398Y-12045306D01*
X15854398Y-12045306D02*
X15873446Y-12035782D01*
X15873446Y-12035782D02*
X15911541Y-12035782D01*
X15911541Y-12035782D02*
X15930589Y-12045306D01*
X15930589Y-12045306D02*
X15940113Y-12064353D01*
X15940113Y-12064353D02*
X15940113Y-12083401D01*
X15940113Y-12083401D02*
X15844874Y-12102449D01*
X16016303Y-12159591D02*
X16035351Y-12169115D01*
X16035351Y-12169115D02*
X16073446Y-12169115D01*
X16073446Y-12169115D02*
X16092494Y-12159591D01*
X16092494Y-12159591D02*
X16102017Y-12140544D01*
X16102017Y-12140544D02*
X16102017Y-12131020D01*
X16102017Y-12131020D02*
X16092494Y-12111972D01*
X16092494Y-12111972D02*
X16073446Y-12102449D01*
X16073446Y-12102449D02*
X16044874Y-12102449D01*
X16044874Y-12102449D02*
X16025827Y-12092925D01*
X16025827Y-12092925D02*
X16016303Y-12073877D01*
X16016303Y-12073877D02*
X16016303Y-12064353D01*
X16016303Y-12064353D02*
X16025827Y-12045306D01*
X16025827Y-12045306D02*
X16044874Y-12035782D01*
X16044874Y-12035782D02*
X16073446Y-12035782D01*
X16073446Y-12035782D02*
X16092494Y-12045306D01*
X16168684Y-12245306D02*
X16178208Y-12235782D01*
X16178208Y-12235782D02*
X16197255Y-12207210D01*
X16197255Y-12207210D02*
X16206779Y-12188163D01*
X16206779Y-12188163D02*
X16216303Y-12159591D01*
X16216303Y-12159591D02*
X16225827Y-12111972D01*
X16225827Y-12111972D02*
X16225827Y-12073877D01*
X16225827Y-12073877D02*
X16216303Y-12026258D01*
X16216303Y-12026258D02*
X16206779Y-11997687D01*
X16206779Y-11997687D02*
X16197255Y-11978639D01*
X16197255Y-11978639D02*
X16178208Y-11950068D01*
X16178208Y-11950068D02*
X16168684Y-11940544D01*
D13*
X11328621Y-12406631D02*
X11393621Y-12341631D01*
X11328621Y-12276631D01*
X11263621Y-12341631D01*
X11328621Y-12406631D01*
D11*
X11759160Y-12433115D02*
X11644874Y-12433115D01*
X11702017Y-12433115D02*
X11702017Y-12233115D01*
X11702017Y-12233115D02*
X11682969Y-12261687D01*
X11682969Y-12261687D02*
X11663922Y-12280734D01*
X11663922Y-12280734D02*
X11644874Y-12290258D01*
X11844874Y-12414068D02*
X11854398Y-12423591D01*
X11854398Y-12423591D02*
X11844874Y-12433115D01*
X11844874Y-12433115D02*
X11835350Y-12423591D01*
X11835350Y-12423591D02*
X11844874Y-12414068D01*
X11844874Y-12414068D02*
X11844874Y-12433115D01*
X11921065Y-12233115D02*
X12044874Y-12233115D01*
X12044874Y-12233115D02*
X11978207Y-12309306D01*
X11978207Y-12309306D02*
X12006779Y-12309306D01*
X12006779Y-12309306D02*
X12025826Y-12318829D01*
X12025826Y-12318829D02*
X12035350Y-12328353D01*
X12035350Y-12328353D02*
X12044874Y-12347401D01*
X12044874Y-12347401D02*
X12044874Y-12395020D01*
X12044874Y-12395020D02*
X12035350Y-12414068D01*
X12035350Y-12414068D02*
X12025826Y-12423591D01*
X12025826Y-12423591D02*
X12006779Y-12433115D01*
X12006779Y-12433115D02*
X11949636Y-12433115D01*
X11949636Y-12433115D02*
X11930588Y-12423591D01*
X11930588Y-12423591D02*
X11921065Y-12414068D01*
X12168684Y-12233115D02*
X12187731Y-12233115D01*
X12187731Y-12233115D02*
X12206779Y-12242639D01*
X12206779Y-12242639D02*
X12216303Y-12252163D01*
X12216303Y-12252163D02*
X12225826Y-12271210D01*
X12225826Y-12271210D02*
X12235350Y-12309306D01*
X12235350Y-12309306D02*
X12235350Y-12356925D01*
X12235350Y-12356925D02*
X12225826Y-12395020D01*
X12225826Y-12395020D02*
X12216303Y-12414068D01*
X12216303Y-12414068D02*
X12206779Y-12423591D01*
X12206779Y-12423591D02*
X12187731Y-12433115D01*
X12187731Y-12433115D02*
X12168684Y-12433115D01*
X12168684Y-12433115D02*
X12149636Y-12423591D01*
X12149636Y-12423591D02*
X12140112Y-12414068D01*
X12140112Y-12414068D02*
X12130588Y-12395020D01*
X12130588Y-12395020D02*
X12121065Y-12356925D01*
X12121065Y-12356925D02*
X12121065Y-12309306D01*
X12121065Y-12309306D02*
X12130588Y-12271210D01*
X12130588Y-12271210D02*
X12140112Y-12252163D01*
X12140112Y-12252163D02*
X12149636Y-12242639D01*
X12149636Y-12242639D02*
X12168684Y-12233115D01*
X12359160Y-12233115D02*
X12378207Y-12233115D01*
X12378207Y-12233115D02*
X12397255Y-12242639D01*
X12397255Y-12242639D02*
X12406779Y-12252163D01*
X12406779Y-12252163D02*
X12416303Y-12271210D01*
X12416303Y-12271210D02*
X12425826Y-12309306D01*
X12425826Y-12309306D02*
X12425826Y-12356925D01*
X12425826Y-12356925D02*
X12416303Y-12395020D01*
X12416303Y-12395020D02*
X12406779Y-12414068D01*
X12406779Y-12414068D02*
X12397255Y-12423591D01*
X12397255Y-12423591D02*
X12378207Y-12433115D01*
X12378207Y-12433115D02*
X12359160Y-12433115D01*
X12359160Y-12433115D02*
X12340112Y-12423591D01*
X12340112Y-12423591D02*
X12330588Y-12414068D01*
X12330588Y-12414068D02*
X12321065Y-12395020D01*
X12321065Y-12395020D02*
X12311541Y-12356925D01*
X12311541Y-12356925D02*
X12311541Y-12309306D01*
X12311541Y-12309306D02*
X12321065Y-12271210D01*
X12321065Y-12271210D02*
X12330588Y-12252163D01*
X12330588Y-12252163D02*
X12340112Y-12242639D01*
X12340112Y-12242639D02*
X12359160Y-12233115D01*
X12511541Y-12433115D02*
X12511541Y-12299782D01*
X12511541Y-12318829D02*
X12521065Y-12309306D01*
X12521065Y-12309306D02*
X12540112Y-12299782D01*
X12540112Y-12299782D02*
X12568684Y-12299782D01*
X12568684Y-12299782D02*
X12587731Y-12309306D01*
X12587731Y-12309306D02*
X12597255Y-12328353D01*
X12597255Y-12328353D02*
X12597255Y-12433115D01*
X12597255Y-12328353D02*
X12606779Y-12309306D01*
X12606779Y-12309306D02*
X12625826Y-12299782D01*
X12625826Y-12299782D02*
X12654398Y-12299782D01*
X12654398Y-12299782D02*
X12673446Y-12309306D01*
X12673446Y-12309306D02*
X12682969Y-12328353D01*
X12682969Y-12328353D02*
X12682969Y-12433115D01*
X12778207Y-12433115D02*
X12778207Y-12299782D01*
X12778207Y-12318829D02*
X12787731Y-12309306D01*
X12787731Y-12309306D02*
X12806779Y-12299782D01*
X12806779Y-12299782D02*
X12835350Y-12299782D01*
X12835350Y-12299782D02*
X12854398Y-12309306D01*
X12854398Y-12309306D02*
X12863922Y-12328353D01*
X12863922Y-12328353D02*
X12863922Y-12433115D01*
X12863922Y-12328353D02*
X12873446Y-12309306D01*
X12873446Y-12309306D02*
X12892493Y-12299782D01*
X12892493Y-12299782D02*
X12921065Y-12299782D01*
X12921065Y-12299782D02*
X12940112Y-12309306D01*
X12940112Y-12309306D02*
X12949636Y-12328353D01*
X12949636Y-12328353D02*
X12949636Y-12433115D01*
X13340112Y-12223591D02*
X13168684Y-12480734D01*
X13597255Y-12233115D02*
X13616303Y-12233115D01*
X13616303Y-12233115D02*
X13635350Y-12242639D01*
X13635350Y-12242639D02*
X13644874Y-12252163D01*
X13644874Y-12252163D02*
X13654398Y-12271210D01*
X13654398Y-12271210D02*
X13663922Y-12309306D01*
X13663922Y-12309306D02*
X13663922Y-12356925D01*
X13663922Y-12356925D02*
X13654398Y-12395020D01*
X13654398Y-12395020D02*
X13644874Y-12414068D01*
X13644874Y-12414068D02*
X13635350Y-12423591D01*
X13635350Y-12423591D02*
X13616303Y-12433115D01*
X13616303Y-12433115D02*
X13597255Y-12433115D01*
X13597255Y-12433115D02*
X13578208Y-12423591D01*
X13578208Y-12423591D02*
X13568684Y-12414068D01*
X13568684Y-12414068D02*
X13559160Y-12395020D01*
X13559160Y-12395020D02*
X13549636Y-12356925D01*
X13549636Y-12356925D02*
X13549636Y-12309306D01*
X13549636Y-12309306D02*
X13559160Y-12271210D01*
X13559160Y-12271210D02*
X13568684Y-12252163D01*
X13568684Y-12252163D02*
X13578208Y-12242639D01*
X13578208Y-12242639D02*
X13597255Y-12233115D01*
X13749636Y-12414068D02*
X13759160Y-12423591D01*
X13759160Y-12423591D02*
X13749636Y-12433115D01*
X13749636Y-12433115D02*
X13740112Y-12423591D01*
X13740112Y-12423591D02*
X13749636Y-12414068D01*
X13749636Y-12414068D02*
X13749636Y-12433115D01*
X13882969Y-12233115D02*
X13902017Y-12233115D01*
X13902017Y-12233115D02*
X13921065Y-12242639D01*
X13921065Y-12242639D02*
X13930589Y-12252163D01*
X13930589Y-12252163D02*
X13940112Y-12271210D01*
X13940112Y-12271210D02*
X13949636Y-12309306D01*
X13949636Y-12309306D02*
X13949636Y-12356925D01*
X13949636Y-12356925D02*
X13940112Y-12395020D01*
X13940112Y-12395020D02*
X13930589Y-12414068D01*
X13930589Y-12414068D02*
X13921065Y-12423591D01*
X13921065Y-12423591D02*
X13902017Y-12433115D01*
X13902017Y-12433115D02*
X13882969Y-12433115D01*
X13882969Y-12433115D02*
X13863922Y-12423591D01*
X13863922Y-12423591D02*
X13854398Y-12414068D01*
X13854398Y-12414068D02*
X13844874Y-12395020D01*
X13844874Y-12395020D02*
X13835350Y-12356925D01*
X13835350Y-12356925D02*
X13835350Y-12309306D01*
X13835350Y-12309306D02*
X13844874Y-12271210D01*
X13844874Y-12271210D02*
X13854398Y-12252163D01*
X13854398Y-12252163D02*
X13863922Y-12242639D01*
X13863922Y-12242639D02*
X13882969Y-12233115D01*
X14130589Y-12233115D02*
X14035350Y-12233115D01*
X14035350Y-12233115D02*
X14025827Y-12328353D01*
X14025827Y-12328353D02*
X14035350Y-12318829D01*
X14035350Y-12318829D02*
X14054398Y-12309306D01*
X14054398Y-12309306D02*
X14102017Y-12309306D01*
X14102017Y-12309306D02*
X14121065Y-12318829D01*
X14121065Y-12318829D02*
X14130589Y-12328353D01*
X14130589Y-12328353D02*
X14140112Y-12347401D01*
X14140112Y-12347401D02*
X14140112Y-12395020D01*
X14140112Y-12395020D02*
X14130589Y-12414068D01*
X14130589Y-12414068D02*
X14121065Y-12423591D01*
X14121065Y-12423591D02*
X14102017Y-12433115D01*
X14102017Y-12433115D02*
X14054398Y-12433115D01*
X14054398Y-12433115D02*
X14035350Y-12423591D01*
X14035350Y-12423591D02*
X14025827Y-12414068D01*
X14330589Y-12433115D02*
X14216303Y-12433115D01*
X14273446Y-12433115D02*
X14273446Y-12233115D01*
X14273446Y-12233115D02*
X14254398Y-12261687D01*
X14254398Y-12261687D02*
X14235350Y-12280734D01*
X14235350Y-12280734D02*
X14216303Y-12290258D01*
X14406779Y-12252163D02*
X14416303Y-12242639D01*
X14416303Y-12242639D02*
X14435350Y-12233115D01*
X14435350Y-12233115D02*
X14482970Y-12233115D01*
X14482970Y-12233115D02*
X14502017Y-12242639D01*
X14502017Y-12242639D02*
X14511541Y-12252163D01*
X14511541Y-12252163D02*
X14521065Y-12271210D01*
X14521065Y-12271210D02*
X14521065Y-12290258D01*
X14521065Y-12290258D02*
X14511541Y-12318829D01*
X14511541Y-12318829D02*
X14397255Y-12433115D01*
X14397255Y-12433115D02*
X14521065Y-12433115D01*
X14597255Y-12233115D02*
X14597255Y-12271210D01*
X14673446Y-12233115D02*
X14673446Y-12271210D01*
X14968684Y-12509306D02*
X14959160Y-12499782D01*
X14959160Y-12499782D02*
X14940112Y-12471210D01*
X14940112Y-12471210D02*
X14930589Y-12452163D01*
X14930589Y-12452163D02*
X14921065Y-12423591D01*
X14921065Y-12423591D02*
X14911541Y-12375972D01*
X14911541Y-12375972D02*
X14911541Y-12337877D01*
X14911541Y-12337877D02*
X14921065Y-12290258D01*
X14921065Y-12290258D02*
X14930589Y-12261687D01*
X14930589Y-12261687D02*
X14940112Y-12242639D01*
X14940112Y-12242639D02*
X14959160Y-12214068D01*
X14959160Y-12214068D02*
X14968684Y-12204544D01*
X15035351Y-12252163D02*
X15044874Y-12242639D01*
X15044874Y-12242639D02*
X15063922Y-12233115D01*
X15063922Y-12233115D02*
X15111541Y-12233115D01*
X15111541Y-12233115D02*
X15130589Y-12242639D01*
X15130589Y-12242639D02*
X15140112Y-12252163D01*
X15140112Y-12252163D02*
X15149636Y-12271210D01*
X15149636Y-12271210D02*
X15149636Y-12290258D01*
X15149636Y-12290258D02*
X15140112Y-12318829D01*
X15140112Y-12318829D02*
X15025827Y-12433115D01*
X15025827Y-12433115D02*
X15149636Y-12433115D01*
X15387732Y-12433115D02*
X15387732Y-12233115D01*
X15473446Y-12433115D02*
X15473446Y-12328353D01*
X15473446Y-12328353D02*
X15463922Y-12309306D01*
X15463922Y-12309306D02*
X15444874Y-12299782D01*
X15444874Y-12299782D02*
X15416303Y-12299782D01*
X15416303Y-12299782D02*
X15397255Y-12309306D01*
X15397255Y-12309306D02*
X15387732Y-12318829D01*
X15597255Y-12433115D02*
X15578208Y-12423591D01*
X15578208Y-12423591D02*
X15568684Y-12414068D01*
X15568684Y-12414068D02*
X15559160Y-12395020D01*
X15559160Y-12395020D02*
X15559160Y-12337877D01*
X15559160Y-12337877D02*
X15568684Y-12318829D01*
X15568684Y-12318829D02*
X15578208Y-12309306D01*
X15578208Y-12309306D02*
X15597255Y-12299782D01*
X15597255Y-12299782D02*
X15625827Y-12299782D01*
X15625827Y-12299782D02*
X15644874Y-12309306D01*
X15644874Y-12309306D02*
X15654398Y-12318829D01*
X15654398Y-12318829D02*
X15663922Y-12337877D01*
X15663922Y-12337877D02*
X15663922Y-12395020D01*
X15663922Y-12395020D02*
X15654398Y-12414068D01*
X15654398Y-12414068D02*
X15644874Y-12423591D01*
X15644874Y-12423591D02*
X15625827Y-12433115D01*
X15625827Y-12433115D02*
X15597255Y-12433115D01*
X15778208Y-12433115D02*
X15759160Y-12423591D01*
X15759160Y-12423591D02*
X15749636Y-12404544D01*
X15749636Y-12404544D02*
X15749636Y-12233115D01*
X15930589Y-12423591D02*
X15911541Y-12433115D01*
X15911541Y-12433115D02*
X15873446Y-12433115D01*
X15873446Y-12433115D02*
X15854398Y-12423591D01*
X15854398Y-12423591D02*
X15844874Y-12404544D01*
X15844874Y-12404544D02*
X15844874Y-12328353D01*
X15844874Y-12328353D02*
X15854398Y-12309306D01*
X15854398Y-12309306D02*
X15873446Y-12299782D01*
X15873446Y-12299782D02*
X15911541Y-12299782D01*
X15911541Y-12299782D02*
X15930589Y-12309306D01*
X15930589Y-12309306D02*
X15940113Y-12328353D01*
X15940113Y-12328353D02*
X15940113Y-12347401D01*
X15940113Y-12347401D02*
X15844874Y-12366449D01*
X16016303Y-12423591D02*
X16035351Y-12433115D01*
X16035351Y-12433115D02*
X16073446Y-12433115D01*
X16073446Y-12433115D02*
X16092494Y-12423591D01*
X16092494Y-12423591D02*
X16102017Y-12404544D01*
X16102017Y-12404544D02*
X16102017Y-12395020D01*
X16102017Y-12395020D02*
X16092494Y-12375972D01*
X16092494Y-12375972D02*
X16073446Y-12366449D01*
X16073446Y-12366449D02*
X16044874Y-12366449D01*
X16044874Y-12366449D02*
X16025827Y-12356925D01*
X16025827Y-12356925D02*
X16016303Y-12337877D01*
X16016303Y-12337877D02*
X16016303Y-12328353D01*
X16016303Y-12328353D02*
X16025827Y-12309306D01*
X16025827Y-12309306D02*
X16044874Y-12299782D01*
X16044874Y-12299782D02*
X16073446Y-12299782D01*
X16073446Y-12299782D02*
X16092494Y-12309306D01*
X16168684Y-12509306D02*
X16178208Y-12499782D01*
X16178208Y-12499782D02*
X16197255Y-12471210D01*
X16197255Y-12471210D02*
X16206779Y-12452163D01*
X16206779Y-12452163D02*
X16216303Y-12423591D01*
X16216303Y-12423591D02*
X16225827Y-12375972D01*
X16225827Y-12375972D02*
X16225827Y-12337877D01*
X16225827Y-12337877D02*
X16216303Y-12290258D01*
X16216303Y-12290258D02*
X16206779Y-12261687D01*
X16206779Y-12261687D02*
X16197255Y-12242639D01*
X16197255Y-12242639D02*
X16178208Y-12214068D01*
X16178208Y-12214068D02*
X16168684Y-12204544D01*
D14*
X11243621Y-12530631D02*
X11393621Y-12680631D01*
X11393621Y-12530631D02*
X11243621Y-12680631D01*
X11393621Y-12605631D02*
G75*
G02*
X11243621Y-12605631I-75000J0D01*
G01*
X11243621Y-12605631D02*
G75*
G02*
X11393621Y-12605631I75000J0D01*
G01*
D11*
X11759160Y-12697115D02*
X11644874Y-12697115D01*
X11702017Y-12697115D02*
X11702017Y-12497115D01*
X11702017Y-12497115D02*
X11682969Y-12525687D01*
X11682969Y-12525687D02*
X11663922Y-12544734D01*
X11663922Y-12544734D02*
X11644874Y-12554258D01*
X11844874Y-12678068D02*
X11854398Y-12687591D01*
X11854398Y-12687591D02*
X11844874Y-12697115D01*
X11844874Y-12697115D02*
X11835350Y-12687591D01*
X11835350Y-12687591D02*
X11844874Y-12678068D01*
X11844874Y-12678068D02*
X11844874Y-12697115D01*
X12035350Y-12497115D02*
X11940112Y-12497115D01*
X11940112Y-12497115D02*
X11930588Y-12592353D01*
X11930588Y-12592353D02*
X11940112Y-12582829D01*
X11940112Y-12582829D02*
X11959160Y-12573306D01*
X11959160Y-12573306D02*
X12006779Y-12573306D01*
X12006779Y-12573306D02*
X12025826Y-12582829D01*
X12025826Y-12582829D02*
X12035350Y-12592353D01*
X12035350Y-12592353D02*
X12044874Y-12611401D01*
X12044874Y-12611401D02*
X12044874Y-12659020D01*
X12044874Y-12659020D02*
X12035350Y-12678068D01*
X12035350Y-12678068D02*
X12025826Y-12687591D01*
X12025826Y-12687591D02*
X12006779Y-12697115D01*
X12006779Y-12697115D02*
X11959160Y-12697115D01*
X11959160Y-12697115D02*
X11940112Y-12687591D01*
X11940112Y-12687591D02*
X11930588Y-12678068D01*
X12168684Y-12497115D02*
X12187731Y-12497115D01*
X12187731Y-12497115D02*
X12206779Y-12506639D01*
X12206779Y-12506639D02*
X12216303Y-12516163D01*
X12216303Y-12516163D02*
X12225826Y-12535210D01*
X12225826Y-12535210D02*
X12235350Y-12573306D01*
X12235350Y-12573306D02*
X12235350Y-12620925D01*
X12235350Y-12620925D02*
X12225826Y-12659020D01*
X12225826Y-12659020D02*
X12216303Y-12678068D01*
X12216303Y-12678068D02*
X12206779Y-12687591D01*
X12206779Y-12687591D02*
X12187731Y-12697115D01*
X12187731Y-12697115D02*
X12168684Y-12697115D01*
X12168684Y-12697115D02*
X12149636Y-12687591D01*
X12149636Y-12687591D02*
X12140112Y-12678068D01*
X12140112Y-12678068D02*
X12130588Y-12659020D01*
X12130588Y-12659020D02*
X12121065Y-12620925D01*
X12121065Y-12620925D02*
X12121065Y-12573306D01*
X12121065Y-12573306D02*
X12130588Y-12535210D01*
X12130588Y-12535210D02*
X12140112Y-12516163D01*
X12140112Y-12516163D02*
X12149636Y-12506639D01*
X12149636Y-12506639D02*
X12168684Y-12497115D01*
X12359160Y-12497115D02*
X12378207Y-12497115D01*
X12378207Y-12497115D02*
X12397255Y-12506639D01*
X12397255Y-12506639D02*
X12406779Y-12516163D01*
X12406779Y-12516163D02*
X12416303Y-12535210D01*
X12416303Y-12535210D02*
X12425826Y-12573306D01*
X12425826Y-12573306D02*
X12425826Y-12620925D01*
X12425826Y-12620925D02*
X12416303Y-12659020D01*
X12416303Y-12659020D02*
X12406779Y-12678068D01*
X12406779Y-12678068D02*
X12397255Y-12687591D01*
X12397255Y-12687591D02*
X12378207Y-12697115D01*
X12378207Y-12697115D02*
X12359160Y-12697115D01*
X12359160Y-12697115D02*
X12340112Y-12687591D01*
X12340112Y-12687591D02*
X12330588Y-12678068D01*
X12330588Y-12678068D02*
X12321065Y-12659020D01*
X12321065Y-12659020D02*
X12311541Y-12620925D01*
X12311541Y-12620925D02*
X12311541Y-12573306D01*
X12311541Y-12573306D02*
X12321065Y-12535210D01*
X12321065Y-12535210D02*
X12330588Y-12516163D01*
X12330588Y-12516163D02*
X12340112Y-12506639D01*
X12340112Y-12506639D02*
X12359160Y-12497115D01*
X12511541Y-12697115D02*
X12511541Y-12563782D01*
X12511541Y-12582829D02*
X12521065Y-12573306D01*
X12521065Y-12573306D02*
X12540112Y-12563782D01*
X12540112Y-12563782D02*
X12568684Y-12563782D01*
X12568684Y-12563782D02*
X12587731Y-12573306D01*
X12587731Y-12573306D02*
X12597255Y-12592353D01*
X12597255Y-12592353D02*
X12597255Y-12697115D01*
X12597255Y-12592353D02*
X12606779Y-12573306D01*
X12606779Y-12573306D02*
X12625826Y-12563782D01*
X12625826Y-12563782D02*
X12654398Y-12563782D01*
X12654398Y-12563782D02*
X12673446Y-12573306D01*
X12673446Y-12573306D02*
X12682969Y-12592353D01*
X12682969Y-12592353D02*
X12682969Y-12697115D01*
X12778207Y-12697115D02*
X12778207Y-12563782D01*
X12778207Y-12582829D02*
X12787731Y-12573306D01*
X12787731Y-12573306D02*
X12806779Y-12563782D01*
X12806779Y-12563782D02*
X12835350Y-12563782D01*
X12835350Y-12563782D02*
X12854398Y-12573306D01*
X12854398Y-12573306D02*
X12863922Y-12592353D01*
X12863922Y-12592353D02*
X12863922Y-12697115D01*
X12863922Y-12592353D02*
X12873446Y-12573306D01*
X12873446Y-12573306D02*
X12892493Y-12563782D01*
X12892493Y-12563782D02*
X12921065Y-12563782D01*
X12921065Y-12563782D02*
X12940112Y-12573306D01*
X12940112Y-12573306D02*
X12949636Y-12592353D01*
X12949636Y-12592353D02*
X12949636Y-12697115D01*
X13340112Y-12487591D02*
X13168684Y-12744734D01*
X13597255Y-12497115D02*
X13616303Y-12497115D01*
X13616303Y-12497115D02*
X13635350Y-12506639D01*
X13635350Y-12506639D02*
X13644874Y-12516163D01*
X13644874Y-12516163D02*
X13654398Y-12535210D01*
X13654398Y-12535210D02*
X13663922Y-12573306D01*
X13663922Y-12573306D02*
X13663922Y-12620925D01*
X13663922Y-12620925D02*
X13654398Y-12659020D01*
X13654398Y-12659020D02*
X13644874Y-12678068D01*
X13644874Y-12678068D02*
X13635350Y-12687591D01*
X13635350Y-12687591D02*
X13616303Y-12697115D01*
X13616303Y-12697115D02*
X13597255Y-12697115D01*
X13597255Y-12697115D02*
X13578208Y-12687591D01*
X13578208Y-12687591D02*
X13568684Y-12678068D01*
X13568684Y-12678068D02*
X13559160Y-12659020D01*
X13559160Y-12659020D02*
X13549636Y-12620925D01*
X13549636Y-12620925D02*
X13549636Y-12573306D01*
X13549636Y-12573306D02*
X13559160Y-12535210D01*
X13559160Y-12535210D02*
X13568684Y-12516163D01*
X13568684Y-12516163D02*
X13578208Y-12506639D01*
X13578208Y-12506639D02*
X13597255Y-12497115D01*
X13749636Y-12678068D02*
X13759160Y-12687591D01*
X13759160Y-12687591D02*
X13749636Y-12697115D01*
X13749636Y-12697115D02*
X13740112Y-12687591D01*
X13740112Y-12687591D02*
X13749636Y-12678068D01*
X13749636Y-12678068D02*
X13749636Y-12697115D01*
X13882969Y-12497115D02*
X13902017Y-12497115D01*
X13902017Y-12497115D02*
X13921065Y-12506639D01*
X13921065Y-12506639D02*
X13930589Y-12516163D01*
X13930589Y-12516163D02*
X13940112Y-12535210D01*
X13940112Y-12535210D02*
X13949636Y-12573306D01*
X13949636Y-12573306D02*
X13949636Y-12620925D01*
X13949636Y-12620925D02*
X13940112Y-12659020D01*
X13940112Y-12659020D02*
X13930589Y-12678068D01*
X13930589Y-12678068D02*
X13921065Y-12687591D01*
X13921065Y-12687591D02*
X13902017Y-12697115D01*
X13902017Y-12697115D02*
X13882969Y-12697115D01*
X13882969Y-12697115D02*
X13863922Y-12687591D01*
X13863922Y-12687591D02*
X13854398Y-12678068D01*
X13854398Y-12678068D02*
X13844874Y-12659020D01*
X13844874Y-12659020D02*
X13835350Y-12620925D01*
X13835350Y-12620925D02*
X13835350Y-12573306D01*
X13835350Y-12573306D02*
X13844874Y-12535210D01*
X13844874Y-12535210D02*
X13854398Y-12516163D01*
X13854398Y-12516163D02*
X13863922Y-12506639D01*
X13863922Y-12506639D02*
X13882969Y-12497115D01*
X14130589Y-12497115D02*
X14035350Y-12497115D01*
X14035350Y-12497115D02*
X14025827Y-12592353D01*
X14025827Y-12592353D02*
X14035350Y-12582829D01*
X14035350Y-12582829D02*
X14054398Y-12573306D01*
X14054398Y-12573306D02*
X14102017Y-12573306D01*
X14102017Y-12573306D02*
X14121065Y-12582829D01*
X14121065Y-12582829D02*
X14130589Y-12592353D01*
X14130589Y-12592353D02*
X14140112Y-12611401D01*
X14140112Y-12611401D02*
X14140112Y-12659020D01*
X14140112Y-12659020D02*
X14130589Y-12678068D01*
X14130589Y-12678068D02*
X14121065Y-12687591D01*
X14121065Y-12687591D02*
X14102017Y-12697115D01*
X14102017Y-12697115D02*
X14054398Y-12697115D01*
X14054398Y-12697115D02*
X14035350Y-12687591D01*
X14035350Y-12687591D02*
X14025827Y-12678068D01*
X14235350Y-12697115D02*
X14273446Y-12697115D01*
X14273446Y-12697115D02*
X14292493Y-12687591D01*
X14292493Y-12687591D02*
X14302017Y-12678068D01*
X14302017Y-12678068D02*
X14321065Y-12649496D01*
X14321065Y-12649496D02*
X14330589Y-12611401D01*
X14330589Y-12611401D02*
X14330589Y-12535210D01*
X14330589Y-12535210D02*
X14321065Y-12516163D01*
X14321065Y-12516163D02*
X14311541Y-12506639D01*
X14311541Y-12506639D02*
X14292493Y-12497115D01*
X14292493Y-12497115D02*
X14254398Y-12497115D01*
X14254398Y-12497115D02*
X14235350Y-12506639D01*
X14235350Y-12506639D02*
X14225827Y-12516163D01*
X14225827Y-12516163D02*
X14216303Y-12535210D01*
X14216303Y-12535210D02*
X14216303Y-12582829D01*
X14216303Y-12582829D02*
X14225827Y-12601877D01*
X14225827Y-12601877D02*
X14235350Y-12611401D01*
X14235350Y-12611401D02*
X14254398Y-12620925D01*
X14254398Y-12620925D02*
X14292493Y-12620925D01*
X14292493Y-12620925D02*
X14311541Y-12611401D01*
X14311541Y-12611401D02*
X14321065Y-12601877D01*
X14321065Y-12601877D02*
X14330589Y-12582829D01*
X14521065Y-12697115D02*
X14406779Y-12697115D01*
X14463922Y-12697115D02*
X14463922Y-12497115D01*
X14463922Y-12497115D02*
X14444874Y-12525687D01*
X14444874Y-12525687D02*
X14425827Y-12544734D01*
X14425827Y-12544734D02*
X14406779Y-12554258D01*
X14597255Y-12497115D02*
X14597255Y-12535210D01*
X14673446Y-12497115D02*
X14673446Y-12535210D01*
X14968684Y-12773306D02*
X14959160Y-12763782D01*
X14959160Y-12763782D02*
X14940112Y-12735210D01*
X14940112Y-12735210D02*
X14930589Y-12716163D01*
X14930589Y-12716163D02*
X14921065Y-12687591D01*
X14921065Y-12687591D02*
X14911541Y-12639972D01*
X14911541Y-12639972D02*
X14911541Y-12601877D01*
X14911541Y-12601877D02*
X14921065Y-12554258D01*
X14921065Y-12554258D02*
X14930589Y-12525687D01*
X14930589Y-12525687D02*
X14940112Y-12506639D01*
X14940112Y-12506639D02*
X14959160Y-12478068D01*
X14959160Y-12478068D02*
X14968684Y-12468544D01*
X15035351Y-12516163D02*
X15044874Y-12506639D01*
X15044874Y-12506639D02*
X15063922Y-12497115D01*
X15063922Y-12497115D02*
X15111541Y-12497115D01*
X15111541Y-12497115D02*
X15130589Y-12506639D01*
X15130589Y-12506639D02*
X15140112Y-12516163D01*
X15140112Y-12516163D02*
X15149636Y-12535210D01*
X15149636Y-12535210D02*
X15149636Y-12554258D01*
X15149636Y-12554258D02*
X15140112Y-12582829D01*
X15140112Y-12582829D02*
X15025827Y-12697115D01*
X15025827Y-12697115D02*
X15149636Y-12697115D01*
X15387732Y-12697115D02*
X15387732Y-12497115D01*
X15473446Y-12697115D02*
X15473446Y-12592353D01*
X15473446Y-12592353D02*
X15463922Y-12573306D01*
X15463922Y-12573306D02*
X15444874Y-12563782D01*
X15444874Y-12563782D02*
X15416303Y-12563782D01*
X15416303Y-12563782D02*
X15397255Y-12573306D01*
X15397255Y-12573306D02*
X15387732Y-12582829D01*
X15597255Y-12697115D02*
X15578208Y-12687591D01*
X15578208Y-12687591D02*
X15568684Y-12678068D01*
X15568684Y-12678068D02*
X15559160Y-12659020D01*
X15559160Y-12659020D02*
X15559160Y-12601877D01*
X15559160Y-12601877D02*
X15568684Y-12582829D01*
X15568684Y-12582829D02*
X15578208Y-12573306D01*
X15578208Y-12573306D02*
X15597255Y-12563782D01*
X15597255Y-12563782D02*
X15625827Y-12563782D01*
X15625827Y-12563782D02*
X15644874Y-12573306D01*
X15644874Y-12573306D02*
X15654398Y-12582829D01*
X15654398Y-12582829D02*
X15663922Y-12601877D01*
X15663922Y-12601877D02*
X15663922Y-12659020D01*
X15663922Y-12659020D02*
X15654398Y-12678068D01*
X15654398Y-12678068D02*
X15644874Y-12687591D01*
X15644874Y-12687591D02*
X15625827Y-12697115D01*
X15625827Y-12697115D02*
X15597255Y-12697115D01*
X15778208Y-12697115D02*
X15759160Y-12687591D01*
X15759160Y-12687591D02*
X15749636Y-12668544D01*
X15749636Y-12668544D02*
X15749636Y-12497115D01*
X15930589Y-12687591D02*
X15911541Y-12697115D01*
X15911541Y-12697115D02*
X15873446Y-12697115D01*
X15873446Y-12697115D02*
X15854398Y-12687591D01*
X15854398Y-12687591D02*
X15844874Y-12668544D01*
X15844874Y-12668544D02*
X15844874Y-12592353D01*
X15844874Y-12592353D02*
X15854398Y-12573306D01*
X15854398Y-12573306D02*
X15873446Y-12563782D01*
X15873446Y-12563782D02*
X15911541Y-12563782D01*
X15911541Y-12563782D02*
X15930589Y-12573306D01*
X15930589Y-12573306D02*
X15940113Y-12592353D01*
X15940113Y-12592353D02*
X15940113Y-12611401D01*
X15940113Y-12611401D02*
X15844874Y-12630449D01*
X16016303Y-12687591D02*
X16035351Y-12697115D01*
X16035351Y-12697115D02*
X16073446Y-12697115D01*
X16073446Y-12697115D02*
X16092494Y-12687591D01*
X16092494Y-12687591D02*
X16102017Y-12668544D01*
X16102017Y-12668544D02*
X16102017Y-12659020D01*
X16102017Y-12659020D02*
X16092494Y-12639972D01*
X16092494Y-12639972D02*
X16073446Y-12630449D01*
X16073446Y-12630449D02*
X16044874Y-12630449D01*
X16044874Y-12630449D02*
X16025827Y-12620925D01*
X16025827Y-12620925D02*
X16016303Y-12601877D01*
X16016303Y-12601877D02*
X16016303Y-12592353D01*
X16016303Y-12592353D02*
X16025827Y-12573306D01*
X16025827Y-12573306D02*
X16044874Y-12563782D01*
X16044874Y-12563782D02*
X16073446Y-12563782D01*
X16073446Y-12563782D02*
X16092494Y-12573306D01*
X16168684Y-12773306D02*
X16178208Y-12763782D01*
X16178208Y-12763782D02*
X16197255Y-12735210D01*
X16197255Y-12735210D02*
X16206779Y-12716163D01*
X16206779Y-12716163D02*
X16216303Y-12687591D01*
X16216303Y-12687591D02*
X16225827Y-12639972D01*
X16225827Y-12639972D02*
X16225827Y-12601877D01*
X16225827Y-12601877D02*
X16216303Y-12554258D01*
X16216303Y-12554258D02*
X16206779Y-12525687D01*
X16206779Y-12525687D02*
X16197255Y-12506639D01*
X16197255Y-12506639D02*
X16178208Y-12478068D01*
X16178208Y-12478068D02*
X16168684Y-12468544D01*
M02*
