%TF.GenerationSoftware,KiCad,Pcbnew,9.0.5*%
%TF.CreationDate,2025-11-04T10:45:24+05:30*%
%TF.ProjectId,digital_diya,64696769-7461-46c5-9f64-6979612e6b69,rev?*%
%TF.SameCoordinates,Original*%
%TF.FileFunction,Legend,Top*%
%TF.FilePolarity,Positive*%
%FSLAX46Y46*%
G04 Gerber Fmt 4.6, Leading zero omitted, Abs format (unit mm)*
G04 Created by KiCad (PCBNEW 9.0.5) date 2025-11-04 10:45:24*
%MOMM*%
%LPD*%
G01*
G04 APERTURE LIST*
%ADD10C,0.150000*%
%ADD11C,0.120000*%
G04 APERTURE END LIST*
D10*
X149524819Y-93466904D02*
X150334342Y-93466904D01*
X150334342Y-93466904D02*
X150429580Y-93419285D01*
X150429580Y-93419285D02*
X150477200Y-93371666D01*
X150477200Y-93371666D02*
X150524819Y-93276428D01*
X150524819Y-93276428D02*
X150524819Y-93085952D01*
X150524819Y-93085952D02*
X150477200Y-92990714D01*
X150477200Y-92990714D02*
X150429580Y-92943095D01*
X150429580Y-92943095D02*
X150334342Y-92895476D01*
X150334342Y-92895476D02*
X149524819Y-92895476D01*
X150524819Y-91895476D02*
X150524819Y-92466904D01*
X150524819Y-92181190D02*
X149524819Y-92181190D01*
X149524819Y-92181190D02*
X149667676Y-92276428D01*
X149667676Y-92276428D02*
X149762914Y-92371666D01*
X149762914Y-92371666D02*
X149810533Y-92466904D01*
X164579841Y-77001666D02*
X164103650Y-77334999D01*
X164579841Y-77573094D02*
X163579841Y-77573094D01*
X163579841Y-77573094D02*
X163579841Y-77192142D01*
X163579841Y-77192142D02*
X163627460Y-77096904D01*
X163627460Y-77096904D02*
X163675079Y-77049285D01*
X163675079Y-77049285D02*
X163770317Y-77001666D01*
X163770317Y-77001666D02*
X163913174Y-77001666D01*
X163913174Y-77001666D02*
X164008412Y-77049285D01*
X164008412Y-77049285D02*
X164056031Y-77096904D01*
X164056031Y-77096904D02*
X164103650Y-77192142D01*
X164103650Y-77192142D02*
X164103650Y-77573094D01*
X163675079Y-76620713D02*
X163627460Y-76573094D01*
X163627460Y-76573094D02*
X163579841Y-76477856D01*
X163579841Y-76477856D02*
X163579841Y-76239761D01*
X163579841Y-76239761D02*
X163627460Y-76144523D01*
X163627460Y-76144523D02*
X163675079Y-76096904D01*
X163675079Y-76096904D02*
X163770317Y-76049285D01*
X163770317Y-76049285D02*
X163865555Y-76049285D01*
X163865555Y-76049285D02*
X164008412Y-76096904D01*
X164008412Y-76096904D02*
X164579841Y-76668332D01*
X164579841Y-76668332D02*
X164579841Y-76049285D01*
X156043333Y-67934819D02*
X155710000Y-67458628D01*
X155471905Y-67934819D02*
X155471905Y-66934819D01*
X155471905Y-66934819D02*
X155852857Y-66934819D01*
X155852857Y-66934819D02*
X155948095Y-66982438D01*
X155948095Y-66982438D02*
X155995714Y-67030057D01*
X155995714Y-67030057D02*
X156043333Y-67125295D01*
X156043333Y-67125295D02*
X156043333Y-67268152D01*
X156043333Y-67268152D02*
X155995714Y-67363390D01*
X155995714Y-67363390D02*
X155948095Y-67411009D01*
X155948095Y-67411009D02*
X155852857Y-67458628D01*
X155852857Y-67458628D02*
X155471905Y-67458628D01*
X156995714Y-67934819D02*
X156424286Y-67934819D01*
X156710000Y-67934819D02*
X156710000Y-66934819D01*
X156710000Y-66934819D02*
X156614762Y-67077676D01*
X156614762Y-67077676D02*
X156519524Y-67172914D01*
X156519524Y-67172914D02*
X156424286Y-67220533D01*
X139626667Y-92667200D02*
X139769524Y-92714819D01*
X139769524Y-92714819D02*
X140007619Y-92714819D01*
X140007619Y-92714819D02*
X140102857Y-92667200D01*
X140102857Y-92667200D02*
X140150476Y-92619580D01*
X140150476Y-92619580D02*
X140198095Y-92524342D01*
X140198095Y-92524342D02*
X140198095Y-92429104D01*
X140198095Y-92429104D02*
X140150476Y-92333866D01*
X140150476Y-92333866D02*
X140102857Y-92286247D01*
X140102857Y-92286247D02*
X140007619Y-92238628D01*
X140007619Y-92238628D02*
X139817143Y-92191009D01*
X139817143Y-92191009D02*
X139721905Y-92143390D01*
X139721905Y-92143390D02*
X139674286Y-92095771D01*
X139674286Y-92095771D02*
X139626667Y-92000533D01*
X139626667Y-92000533D02*
X139626667Y-91905295D01*
X139626667Y-91905295D02*
X139674286Y-91810057D01*
X139674286Y-91810057D02*
X139721905Y-91762438D01*
X139721905Y-91762438D02*
X139817143Y-91714819D01*
X139817143Y-91714819D02*
X140055238Y-91714819D01*
X140055238Y-91714819D02*
X140198095Y-91762438D01*
X140531429Y-91714819D02*
X140769524Y-92714819D01*
X140769524Y-92714819D02*
X140960000Y-92000533D01*
X140960000Y-92000533D02*
X141150476Y-92714819D01*
X141150476Y-92714819D02*
X141388572Y-91714819D01*
X141721905Y-91810057D02*
X141769524Y-91762438D01*
X141769524Y-91762438D02*
X141864762Y-91714819D01*
X141864762Y-91714819D02*
X142102857Y-91714819D01*
X142102857Y-91714819D02*
X142198095Y-91762438D01*
X142198095Y-91762438D02*
X142245714Y-91810057D01*
X142245714Y-91810057D02*
X142293333Y-91905295D01*
X142293333Y-91905295D02*
X142293333Y-92000533D01*
X142293333Y-92000533D02*
X142245714Y-92143390D01*
X142245714Y-92143390D02*
X141674286Y-92714819D01*
X141674286Y-92714819D02*
X142293333Y-92714819D01*
X168235476Y-73634819D02*
X168235476Y-72634819D01*
X168235476Y-72634819D02*
X168568809Y-73349104D01*
X168568809Y-73349104D02*
X168902142Y-72634819D01*
X168902142Y-72634819D02*
X168902142Y-73634819D01*
X169378333Y-73634819D02*
X169378333Y-72634819D01*
X169949761Y-73634819D02*
X169521190Y-73063390D01*
X169949761Y-72634819D02*
X169378333Y-73206247D01*
X170902142Y-73634819D02*
X170330714Y-73634819D01*
X170616428Y-73634819D02*
X170616428Y-72634819D01*
X170616428Y-72634819D02*
X170521190Y-72777676D01*
X170521190Y-72777676D02*
X170425952Y-72872914D01*
X170425952Y-72872914D02*
X170330714Y-72920533D01*
X156043333Y-62537319D02*
X155710000Y-62061128D01*
X155471905Y-62537319D02*
X155471905Y-61537319D01*
X155471905Y-61537319D02*
X155852857Y-61537319D01*
X155852857Y-61537319D02*
X155948095Y-61584938D01*
X155948095Y-61584938D02*
X155995714Y-61632557D01*
X155995714Y-61632557D02*
X156043333Y-61727795D01*
X156043333Y-61727795D02*
X156043333Y-61870652D01*
X156043333Y-61870652D02*
X155995714Y-61965890D01*
X155995714Y-61965890D02*
X155948095Y-62013509D01*
X155948095Y-62013509D02*
X155852857Y-62061128D01*
X155852857Y-62061128D02*
X155471905Y-62061128D01*
X156900476Y-61870652D02*
X156900476Y-62537319D01*
X156662381Y-61489700D02*
X156424286Y-62203985D01*
X156424286Y-62203985D02*
X157043333Y-62203985D01*
X156043333Y-57139819D02*
X155710000Y-56663628D01*
X155471905Y-57139819D02*
X155471905Y-56139819D01*
X155471905Y-56139819D02*
X155852857Y-56139819D01*
X155852857Y-56139819D02*
X155948095Y-56187438D01*
X155948095Y-56187438D02*
X155995714Y-56235057D01*
X155995714Y-56235057D02*
X156043333Y-56330295D01*
X156043333Y-56330295D02*
X156043333Y-56473152D01*
X156043333Y-56473152D02*
X155995714Y-56568390D01*
X155995714Y-56568390D02*
X155948095Y-56616009D01*
X155948095Y-56616009D02*
X155852857Y-56663628D01*
X155852857Y-56663628D02*
X155471905Y-56663628D01*
X156376667Y-56139819D02*
X156995714Y-56139819D01*
X156995714Y-56139819D02*
X156662381Y-56520771D01*
X156662381Y-56520771D02*
X156805238Y-56520771D01*
X156805238Y-56520771D02*
X156900476Y-56568390D01*
X156900476Y-56568390D02*
X156948095Y-56616009D01*
X156948095Y-56616009D02*
X156995714Y-56711247D01*
X156995714Y-56711247D02*
X156995714Y-56949342D01*
X156995714Y-56949342D02*
X156948095Y-57044580D01*
X156948095Y-57044580D02*
X156900476Y-57092200D01*
X156900476Y-57092200D02*
X156805238Y-57139819D01*
X156805238Y-57139819D02*
X156519524Y-57139819D01*
X156519524Y-57139819D02*
X156424286Y-57092200D01*
X156424286Y-57092200D02*
X156376667Y-57044580D01*
X116835199Y-70146009D02*
X116978056Y-70193628D01*
X116978056Y-70193628D02*
X117025675Y-70241247D01*
X117025675Y-70241247D02*
X117073294Y-70336485D01*
X117073294Y-70336485D02*
X117073294Y-70479342D01*
X117073294Y-70479342D02*
X117025675Y-70574580D01*
X117025675Y-70574580D02*
X116978056Y-70622200D01*
X116978056Y-70622200D02*
X116882818Y-70669819D01*
X116882818Y-70669819D02*
X116501866Y-70669819D01*
X116501866Y-70669819D02*
X116501866Y-69669819D01*
X116501866Y-69669819D02*
X116835199Y-69669819D01*
X116835199Y-69669819D02*
X116930437Y-69717438D01*
X116930437Y-69717438D02*
X116978056Y-69765057D01*
X116978056Y-69765057D02*
X117025675Y-69860295D01*
X117025675Y-69860295D02*
X117025675Y-69955533D01*
X117025675Y-69955533D02*
X116978056Y-70050771D01*
X116978056Y-70050771D02*
X116930437Y-70098390D01*
X116930437Y-70098390D02*
X116835199Y-70146009D01*
X116835199Y-70146009D02*
X116501866Y-70146009D01*
X117359009Y-69669819D02*
X117930437Y-69669819D01*
X117644723Y-70669819D02*
X117644723Y-69669819D01*
X118787580Y-70669819D02*
X118216152Y-70669819D01*
X118501866Y-70669819D02*
X118501866Y-69669819D01*
X118501866Y-69669819D02*
X118406628Y-69812676D01*
X118406628Y-69812676D02*
X118311390Y-69907914D01*
X118311390Y-69907914D02*
X118216152Y-69955533D01*
X155554819Y-78138094D02*
X154554819Y-78138094D01*
X154554819Y-78138094D02*
X154554819Y-77899999D01*
X154554819Y-77899999D02*
X154602438Y-77757142D01*
X154602438Y-77757142D02*
X154697676Y-77661904D01*
X154697676Y-77661904D02*
X154792914Y-77614285D01*
X154792914Y-77614285D02*
X154983390Y-77566666D01*
X154983390Y-77566666D02*
X155126247Y-77566666D01*
X155126247Y-77566666D02*
X155316723Y-77614285D01*
X155316723Y-77614285D02*
X155411961Y-77661904D01*
X155411961Y-77661904D02*
X155507200Y-77757142D01*
X155507200Y-77757142D02*
X155554819Y-77899999D01*
X155554819Y-77899999D02*
X155554819Y-78138094D01*
X155554819Y-76614285D02*
X155554819Y-77185713D01*
X155554819Y-76899999D02*
X154554819Y-76899999D01*
X154554819Y-76899999D02*
X154697676Y-76995237D01*
X154697676Y-76995237D02*
X154792914Y-77090475D01*
X154792914Y-77090475D02*
X154840533Y-77185713D01*
D11*
%TO.C,U1*%
X151070000Y-90055000D02*
X151070000Y-91705000D01*
X151070000Y-93705000D02*
X151070000Y-95355000D01*
X151070000Y-95355000D02*
X161350000Y-95355000D01*
X161350000Y-90055000D02*
X151070000Y-90055000D01*
X161350000Y-95355000D02*
X161350000Y-90055000D01*
X151070000Y-91705000D02*
G75*
G02*
X151070000Y-93705000I0J-1000000D01*
G01*
%TO.C,R2*%
X159075022Y-75285000D02*
X159075022Y-78335000D01*
X163375022Y-75285000D02*
X163375022Y-78335000D01*
X159075022Y-75285000D02*
G75*
G02*
X163390547Y-75306766I2150000J-1550000D01*
G01*
X163375022Y-78335000D02*
G75*
G02*
X159106773Y-78379513I-2150000J1500000D01*
G01*
%TO.C,R1*%
X149630000Y-69850000D02*
X152940000Y-69850000D01*
X162790000Y-69850000D02*
X159480000Y-69850000D01*
X152940000Y-68480000D02*
X159480000Y-68480000D01*
X159480000Y-71220000D01*
X152940000Y-71220000D01*
X152940000Y-68480000D01*
%TO.C,SW2*%
X134560000Y-92990000D02*
X143380000Y-92990000D01*
X134560000Y-93300000D02*
X134560000Y-92990000D01*
X134560000Y-97510000D02*
X134560000Y-97200000D01*
X136470000Y-92290000D02*
X136970000Y-92790000D01*
X136970000Y-92790000D02*
X137470000Y-92290000D01*
X137470000Y-92290000D02*
X136470000Y-92290000D01*
X143380000Y-92990000D02*
X143380000Y-93300000D01*
X143380000Y-97510000D02*
X134560000Y-97510000D01*
X143380000Y-97510000D02*
X143380000Y-97200000D01*
%TO.C,MK1*%
X168165000Y-74180000D02*
X169545000Y-74180000D01*
X168165000Y-75560000D02*
X168165000Y-74180000D01*
X168165000Y-76830000D02*
X168165000Y-79480000D01*
X168165000Y-76830000D02*
X170925000Y-76830000D01*
X168165000Y-79480000D02*
X170925000Y-79480000D01*
X170925000Y-76830000D02*
X170925000Y-79480000D01*
%TO.C,R4*%
X149630000Y-64452500D02*
X152940000Y-64452500D01*
X162790000Y-64452500D02*
X159480000Y-64452500D01*
X152940000Y-63082500D02*
X159480000Y-63082500D01*
X159480000Y-65822500D01*
X152940000Y-65822500D01*
X152940000Y-63082500D01*
%TO.C,R3*%
X149630000Y-59055000D02*
X152940000Y-59055000D01*
X162790000Y-59055000D02*
X159480000Y-59055000D01*
X152940000Y-57685000D02*
X159480000Y-57685000D01*
X159480000Y-60425000D01*
X152940000Y-60425000D01*
X152940000Y-57685000D01*
%TO.C,BT1*%
X116190914Y-71225000D02*
X119365914Y-71225000D01*
X116190914Y-82445000D02*
X116190914Y-71225000D01*
X119365914Y-82445000D02*
X116190914Y-82445000D01*
X119365914Y-71225000D02*
G75*
G02*
X119365914Y-82445000I12435000J-5610000D01*
G01*
%TO.C,D1*%
X152040000Y-74270000D02*
X148950000Y-74270000D01*
X150495000Y-79820000D02*
G75*
G02*
X148950170Y-74270000I0J2990000D01*
G01*
X152039830Y-74270000D02*
G75*
G02*
X150495000Y-79820000I-1544830J-2560000D01*
G01*
X152995000Y-76830000D02*
G75*
G02*
X147995000Y-76830000I-2500000J0D01*
G01*
X147995000Y-76830000D02*
G75*
G02*
X152995000Y-76830000I2500000J0D01*
G01*
%TD*%
M02*
