%TF.GenerationSoftware,KiCad,Pcbnew,9.0.5*%
%TF.CreationDate,2025-11-04T12:18:06+05:30*%
%TF.ProjectId,digital_diya,64696769-7461-46c5-9f64-6979612e6b69,rev?*%
%TF.SameCoordinates,Original*%
%TF.FileFunction,Drillmap*%
%TF.FilePolarity,Positive*%
%FSLAX45Y45*%
G04 Gerber Fmt 4.5, Leading zero omitted, Abs format (unit mm)*
G04 Created by KiCad (PCBNEW 9.0.5) date 2025-11-04 12:18:06*
%MOMM*%
%LPD*%
G01*
G04 APERTURE LIST*
%ADD10C,0.050000*%
%ADD11C,0.200000*%
G04 APERTURE END LIST*
D10*
X17483679Y-7599353D02*
G75*
G02*
X11396121Y-7599353I-3043779J0D01*
G01*
X11396121Y-7599353D02*
G75*
G02*
X17483679Y-7599353I3043779J0D01*
G01*
D11*
X11654398Y-10957115D02*
X11654398Y-10757115D01*
X11654398Y-10757115D02*
X11702017Y-10757115D01*
X11702017Y-10757115D02*
X11730588Y-10766639D01*
X11730588Y-10766639D02*
X11749636Y-10785687D01*
X11749636Y-10785687D02*
X11759160Y-10804734D01*
X11759160Y-10804734D02*
X11768684Y-10842830D01*
X11768684Y-10842830D02*
X11768684Y-10871401D01*
X11768684Y-10871401D02*
X11759160Y-10909496D01*
X11759160Y-10909496D02*
X11749636Y-10928544D01*
X11749636Y-10928544D02*
X11730588Y-10947592D01*
X11730588Y-10947592D02*
X11702017Y-10957115D01*
X11702017Y-10957115D02*
X11654398Y-10957115D01*
X11854398Y-10957115D02*
X11854398Y-10823782D01*
X11854398Y-10861877D02*
X11863922Y-10842830D01*
X11863922Y-10842830D02*
X11873445Y-10833306D01*
X11873445Y-10833306D02*
X11892493Y-10823782D01*
X11892493Y-10823782D02*
X11911541Y-10823782D01*
X11978207Y-10957115D02*
X11978207Y-10823782D01*
X11978207Y-10757115D02*
X11968684Y-10766639D01*
X11968684Y-10766639D02*
X11978207Y-10776163D01*
X11978207Y-10776163D02*
X11987731Y-10766639D01*
X11987731Y-10766639D02*
X11978207Y-10757115D01*
X11978207Y-10757115D02*
X11978207Y-10776163D01*
X12102017Y-10957115D02*
X12082969Y-10947592D01*
X12082969Y-10947592D02*
X12073445Y-10928544D01*
X12073445Y-10928544D02*
X12073445Y-10757115D01*
X12206779Y-10957115D02*
X12187731Y-10947592D01*
X12187731Y-10947592D02*
X12178207Y-10928544D01*
X12178207Y-10928544D02*
X12178207Y-10757115D01*
X12435350Y-10957115D02*
X12435350Y-10757115D01*
X12435350Y-10757115D02*
X12502017Y-10899972D01*
X12502017Y-10899972D02*
X12568684Y-10757115D01*
X12568684Y-10757115D02*
X12568684Y-10957115D01*
X12749636Y-10957115D02*
X12749636Y-10852353D01*
X12749636Y-10852353D02*
X12740112Y-10833306D01*
X12740112Y-10833306D02*
X12721065Y-10823782D01*
X12721065Y-10823782D02*
X12682969Y-10823782D01*
X12682969Y-10823782D02*
X12663922Y-10833306D01*
X12749636Y-10947592D02*
X12730588Y-10957115D01*
X12730588Y-10957115D02*
X12682969Y-10957115D01*
X12682969Y-10957115D02*
X12663922Y-10947592D01*
X12663922Y-10947592D02*
X12654398Y-10928544D01*
X12654398Y-10928544D02*
X12654398Y-10909496D01*
X12654398Y-10909496D02*
X12663922Y-10890449D01*
X12663922Y-10890449D02*
X12682969Y-10880925D01*
X12682969Y-10880925D02*
X12730588Y-10880925D01*
X12730588Y-10880925D02*
X12749636Y-10871401D01*
X12844874Y-10823782D02*
X12844874Y-11023782D01*
X12844874Y-10833306D02*
X12863922Y-10823782D01*
X12863922Y-10823782D02*
X12902017Y-10823782D01*
X12902017Y-10823782D02*
X12921065Y-10833306D01*
X12921065Y-10833306D02*
X12930588Y-10842830D01*
X12930588Y-10842830D02*
X12940112Y-10861877D01*
X12940112Y-10861877D02*
X12940112Y-10919020D01*
X12940112Y-10919020D02*
X12930588Y-10938068D01*
X12930588Y-10938068D02*
X12921065Y-10947592D01*
X12921065Y-10947592D02*
X12902017Y-10957115D01*
X12902017Y-10957115D02*
X12863922Y-10957115D01*
X12863922Y-10957115D02*
X12844874Y-10947592D01*
X13025826Y-10938068D02*
X13035350Y-10947592D01*
X13035350Y-10947592D02*
X13025826Y-10957115D01*
X13025826Y-10957115D02*
X13016303Y-10947592D01*
X13016303Y-10947592D02*
X13025826Y-10938068D01*
X13025826Y-10938068D02*
X13025826Y-10957115D01*
X13025826Y-10833306D02*
X13035350Y-10842830D01*
X13035350Y-10842830D02*
X13025826Y-10852353D01*
X13025826Y-10852353D02*
X13016303Y-10842830D01*
X13016303Y-10842830D02*
X13025826Y-10833306D01*
X13025826Y-10833306D02*
X13025826Y-10852353D01*
M02*
